<?xml version="1.0" encoding="utf-8"?>
<!-- Generator: Adobe Illustrator 21.1.0, SVG Export Plug-In . SVG Version: 6.00 Build 0)  -->
<svg version="1.1" id="Layer_1" xmlns="http://www.w3.org/2000/svg" xmlns:xlink="http://www.w3.org/1999/xlink" x="0px" y="0px"
	 viewBox="0 0 1280 1024" style="enable-background:new 0 0 1280 1024;" xml:space="preserve">
<style type="text/css">
	.st0{fill:#FCEE21;}
	.st1{fill:#ECCB8D;}
</style>
<g>
	<g>
		<g>
			<path d="M648.7,41.8c15.2,0,30.4,0,45.6,0c1,0.2,2,0.5,3,0.5c12.2,0,24.3,0,36.5,0c1.7,0,3.4,0.1,5,0.1c0.9,0,1.5,0.4,1.6,1.4
				c0.1,0.7,0.3,1.4,0.4,2.2c5.2,0,10.2,0,15.3,0c5,0,9.9,0.1,14.9,0.1c5,0,10.1,0,15.1,0c5,0,9.9,0,14.9,0.1c5,0.1,10-0.2,15,0.2
				c0.2,1.4,0.3,2.4,0.5,3.6c0.8,0.1,1.5,0.2,2.1,0.2c4.2,0.1,8.5,0.1,12.7,0.1c9.7,0.1,19.4,0.2,29,0.2c2,0,2.1,0,2.5,2
				c0.2,1.2,0.9,1.5,2,1.5c4.5,0.1,8.9,0.3,13.4,0.4c7.9,0.2,15.8,0.2,23.8,0.4c0.6,0,1.2,0.2,1.8,0.2c0.2,1.2,0.4,2.2,0.7,3.2
				c9.8,0.6,19.4,0,29,0.8c0.2,0.4,0.3,0.6,0.4,0.8c0.5,2.6,0.5,2.6,3.1,2.6c7.9,0.1,15.8,0.3,23.7,0.4c0.8,0,1.5,0.1,2.1,0.2
				c0.2,0.4,0.3,0.4,0.3,0.5c0.1,0.2,0.1,0.5,0.2,0.7c0.3,2.1,0.3,2.1,2.3,2.2c1.4,0.1,2.7,0.3,4.1,0.3c6.8,0.2,13.6,0.3,20.4,0.4
				c2.1,0,2.1,0.1,2.4,2c0.1,0.5,0.2,0.9,0.4,1.6c6.9,0.2,13.7,0.4,20.5,0.7c0.3,1.3,0.5,2.2,0.7,3.3c8.1,0.8,16.2,0.1,24.2,1.2
				c0.2,1.2,0.4,2.2,0.6,3.3c6.9,0.1,13.7,0.3,20.5,0.4c0.2,1.4,0.4,2.4,0.6,3.8c5.5,0.1,11,0.3,16.3,0.4c0.5,1.2,0.7,2.7,1.5,3.3
				c0.8,0.6,2.3,0.5,3.5,0.7c0.2,0,0.3,0,0.5,0c3.1,0.3,3.1,0.3,3.7,3.2c0,0.1,0.2,0.3,0.3,0.4c3.2,0.7,3.2,0.7,3.6,3.9
				c0,0.1,0.2,0.3,0.3,0.5c1,0.1,2.2,0.3,3.6,0.5c0,2.1,0,4,0,5.9c-0.1,51.6-0.2,103.2-0.4,154.8c0,0.8-0.1,1.7-0.2,2.5
				c-1.3,0.2-2.3,0.4-3.3,0.6c-0.1,0.8-0.1,1.6-0.2,2.3c-0.1,9.8-0.1,19.7-0.2,29.5c0,4-0.1,8-0.1,12c0,1.7-0.1,1.8-1.9,2.1
				c-0.5,0.1-1,0.3-1.7,0.4c-0.8,11-0.3,21.9-0.8,32.8c-1.3,0.2-2.3,0.4-3.3,0.6c-0.6,8.2,0,16.4-0.9,24.5c-0.5,0.2-0.8,0.3-1.1,0.3
				c-2.3,0.4-2.3,0.4-2.4,2.6c-0.1,3.1-0.1,6.2-0.2,9.4c-0.1,3.2-0.2,6.4-0.3,9.6c0,1,0.1,2.3-0.5,3c-0.6,0.7-1.9,0.8-3.2,1.2
				c-0.2,6.6-0.4,13.2-0.5,19.9c-1.3,0.2-2.3,0.4-3.6,0.6c-0.2,5.5-0.5,10.9-0.7,16.3c-1.3,0.2-2.3,0.4-3.5,0.7
				c-0.2,5.5-0.5,10.8-0.7,16.1c-1.4,0.3-2.4,0.5-3.6,0.7c0,0.9-0.1,1.6-0.1,2.3c-0.1,3.4-0.2,6.9-0.4,10.3c-0.1,1,0,2.3-0.5,3
				c-0.6,0.7-1.9,0.8-3.2,1.2c-0.1,4-0.3,8.1-0.4,12.3c-1.2,0.2-2.3,0.4-3.5,0.6c-0.3,4.1-0.5,8-0.7,12c-0.5,0.1-0.9,0.2-1.3,0.3
				c-2.1,0.3-2.1,0.2-2.2,2.4c-0.1,2.8-0.2,5.6-0.4,8.4c-0.1,1.6-0.1,3.3-0.7,4.7c-0.4,0.8-2,0.9-3.4,1.4c0,0.7,0,1.5,0,2.3
				c-0.1,2.2-0.2,4.5-0.4,6.7c-0.3,2.5-0.4,2.4-2.9,3c-0.3,0.1-0.5,0.3-1.1,0.6c0,2.6,0,5.3,0,8.1c-0.9,0.2-1.5,0.3-2.1,0.4
				c-1.1,0.1-1.5,0.7-1.5,1.7c-0.1,1.8-0.3,3.7-0.4,5.5c-0.1,1.6-0.2,3.2-0.3,4.8c-1.2,0.2-2.4,0.4-3.6,0.7
				c-0.1,2.3-0.1,4.3-0.3,6.4c-0.1,1.6-0.1,3.3-0.8,4.7c-0.4,0.8-2,0.9-3.2,1.3c-0.1,2.6-0.3,5.3-0.4,8c-1.3,0.2-2.4,0.3-3.7,0.5
				c-0.2,4-0.5,7.8-0.7,11.6c-0.5,0.2-0.8,0.3-1,0.3c-2.7,0.3-2.7,0.3-2.8,2.9c-0.1,1.9-0.2,3.8-0.3,5.7c-1.3,0.1-2.4,0.2-3.6,0.4
				c-0.2,2.8-0.3,5.5-0.5,8.2c-1.3,0.2-2.4,0.3-3.7,0.5c-0.2,2.7-0.4,5.3-0.5,7.9c-0.5,0.1-0.9,0.2-1.3,0.3c-2,0.2-2,0.2-2.2,2.3
				c-0.2,2-0.5,4.1-0.8,6.1c-1.1,0.2-2.1,0.3-3.2,0.5c-0.3,2.6-0.6,5.1-0.9,7.8c-0.6,0.1-1.2,0.3-1.9,0.4c-1.2,0.1-1.7,0.6-1.7,1.8
				c0,1.5-0.3,3-0.3,4.5c0,1.3-0.5,2-1.8,1.9c-1.5,0-1.8,0.8-1.9,2.1c-0.2,2-0.5,3.9-0.8,5.9c-0.4,0.1-0.8,0.2-1.2,0.2
				c-2,0.2-2,0.2-2.2,2.2c-0.3,1.9-0.5,3.8-0.8,5.7c-1.1,0.2-2.3,0.3-3.4,0.5c-0.3,2.8-0.5,5.4-0.8,8c-1.3,0.2-2.4,0.3-3.5,0.4
				c-0.2,2.7-0.4,5.2-0.6,7.8c-1.4,0.2-2.5,0.3-3.7,0.4c-0.2,2.7-0.3,5.1-0.5,7.7c-1.3,0.2-2.4,0.4-3.7,0.6
				c-0.2,1.5-0.3,2.9-0.4,4.2c-1.3,0.2-2.4,0.3-3.5,0.5c-0.2,2.7-0.4,5.1-0.6,7.7c-1.3,0.2-2.5,0.3-3.8,0.4
				c-0.2,2.6-0.4,5.1-0.6,7.6c-1.3,0.2-2.5,0.4-3.7,0.5c-0.1,1.5-0.2,2.8-0.3,4.2c-1.3,0.2-2.4,0.4-3.5,0.6
				c-0.3,2.7-0.6,5.1-0.9,7.6c-1.3,0.1-2.4,0.3-3.6,0.4c-0.1,1.5-0.2,2.7-0.3,4c-1.4,0.2-2.5,0.4-3.8,0.5c-0.2,2.6-0.5,5.1-0.7,7.7
				c-1.4,0.1-2.5,0.2-3.8,0.3c-0.1,1.5-0.2,2.8-0.3,4.1c-1.4,0.2-2.4,0.3-3.5,0.4c-0.3,2.7-0.6,5.2-1,7.7c-1.3,0.1-2.4,0.2-3.5,0.3
				c-0.1,1.4-0.3,2.7-0.4,4c-1.3,0.1-2.5,0.3-3.6,0.4c-0.4,2.6-0.7,5.1-1,7.6c-1.3,0.2-2.4,0.3-3.5,0.5c-0.1,1.5-0.2,2.7-0.3,4.1
				c-1.3,0.1-2.5,0.2-3.7,0.3c-0.2,1.4-0.3,2.8-0.5,4.1c-1.3,0.1-2.4,0.2-3.5,0.3c-0.4,2.6-0.7,5.1-1.1,7.6
				c-1.3,0.2-2.4,0.3-3.5,0.4c-0.1,1.5-0.3,2.7-0.4,4c-1.3,0.1-2.5,0.2-3.8,0.3c-0.1,1.4-0.3,2.7-0.4,4c-1.3,0.1-2.4,0.2-3.6,0.3
				c-0.2,1.4-0.3,2.7-0.5,4c-1.3,0.2-2.4,0.3-3.6,0.4c-0.1,0.6-0.2,1-0.2,1.5c-0.1,2.3-0.1,2.4-2.3,2.7c-1.1,0.2-1.4,0.7-1.6,1.7
				c-0.3,1.9-0.6,3.9-1,5.9c-1.2,0.1-2.4,0.3-3.7,0.4c-0.1,1.3-0.2,2.5-0.4,3.8c-1.3,0.2-2.6,0.3-3.8,0.5c-0.1,1.4-0.2,2.6-0.4,3.8
				c-1.3,0.1-2.5,0.2-3.7,0.4c-0.1,1.4-0.2,2.7-0.4,3.9c-1.4,0.1-2.6,0.2-3.8,0.3c-0.1,1.4-0.2,2.6-0.4,3.9
				c-0.7,0.1-1.2,0.2-1.7,0.2c-0.6,0.1-1.2,0.1-2,0.2c-0.1,0.8-0.1,1.5-0.2,2.2c-0.1,1.8-0.1,1.8-1.9,2.1c-0.5,0.1-1.1,0.2-1.7,0.3
				c-0.1,0.5-0.2,0.8-0.2,1.2c-0.2,2.3-0.2,2.3-2.6,2.8c-1,0.2-1.3,0.7-1.5,1.6c-0.3,1.9-0.7,3.9-1.1,5.8c-1.2,0.2-2.4,0.3-3.6,0.5
				c-0.1,0.7-0.1,1.2-0.2,1.8c-0.1,0.6-0.1,1.2-0.1,2c-0.7,0.1-1.4,0.2-2,0.2c-2,0.2-2,0.2-2.1,2.1c-0.1,0.7-0.1,1.4-0.2,2
				c-1.3,0.1-2.4,0.2-3.6,0.3c-0.2,1.4-0.4,2.7-0.6,4c-1.4,0.1-2.6,0.2-3.7,0.3c-0.1,1.4-0.2,2.6-0.3,3.8c-1.4,0.2-2.7,0.3-3.9,0.5
				c-0.1,1.3-0.2,2.4-0.3,3.6c-1.3,0.1-2.6,0.2-3.9,0.4c-0.2,1.4-0.3,2.7-0.5,4c-1.3,0.1-2.5,0.2-3.7,0.2c-0.2,1.4-0.3,2.5-0.5,3.8
				c-1.3,0.2-2.5,0.3-3.8,0.5c-0.2,1.3-0.3,2.4-0.4,3.4c-2.6,0.5-4.9,0.9-7.2,1.3c-0.4,1.3-0.4,2.7-1.1,3.4c-0.7,0.7-2.2,0.7-3.4,1
				c-0.2,1.1-0.3,2.2-0.5,3.3c-1.4,0.2-2.6,0.3-3.9,0.5c-0.1,0.8-0.1,1.4-0.2,1.9c-0.1,0.6-0.2,1.2-0.3,1.8
				c-1.4,0.1-2.6,0.2-3.9,0.3c-0.1,1.4-0.2,2.6-0.3,3.8c-1.4,0.1-2.5,0.3-3.8,0.4c-0.2,1.2-0.3,2.4-0.5,3.6
				c-1.3,0.1-2.5,0.3-3.8,0.4c-0.1,1.4-0.2,2.7-0.3,3.9c-1.5,0.1-2.8,0.2-4,0.3c-0.1,1.4-0.2,2.5-0.3,3.7c-1.8,0.2-3.5,0.5-5.1,0.7
				c-2.2,0.2-2.3,0.2-2.5,2.4c-0.1,1.2-0.7,1.7-1.8,1.8c-0.8,0-1.5,0.1-2.4,0.2c-0.1,0.7-0.1,1.3-0.2,1.8c-0.1,0.6-0.2,1.2-0.3,1.8
				c-1.4,0.1-2.7,0.2-3.9,0.3c-0.1,1.4-0.2,2.6-0.3,3.8c-1.4,0.1-2.6,0.2-4,0.3c-0.1,1.3-0.2,2.5-0.4,3.7c-1.8,0.2-3.5,0.5-5.2,0.7
				c-2.2,0.2-2.3,0.2-2.5,2.4c-0.1,1.1-0.5,1.6-1.6,1.6c-0.8,0-1.7,0.1-2.6,0.2c-0.1,1.4-0.3,2.5-0.4,3.7c-1.4,0.1-2.6,0.2-3.9,0.3
				c-0.2,1.3-0.3,2.6-0.5,3.8c-2,0.3-3.9,0.6-5.8,0.8c-0.8,0.1-1.4,0.3-1.6,1.2c-0.2,0.8-0.3,1.9-0.8,2.4c-0.6,0.4-1.7,0.2-2.5,0.3
				c-0.4,0-0.8,0.1-1.3,0.2c-0.1,1.2-0.3,2.4-0.4,3.6c-0.8,0.1-1.5,0.1-2.2,0.2c-1.8,0.1-1.9,0.2-2,1.9c-0.1,0.6-0.1,1.2-0.2,1.9
				c-2.6,0.3-5.1,0.5-7.6,0.7c-0.1,0.8-0.1,1.3-0.2,1.9c-0.1,0.6-0.2,1.2-0.3,1.9c-1.4,0.1-2.7,0.2-4,0.2c-0.2,1.3-0.3,2.4-0.4,3.6
				c-2.6,0.3-5.1,0.6-7.6,0.9c-0.1,1.2-0.3,2.4-0.5,3.7c-1,0-1.9,0-2.8,0c-1.1,0-1.6,0.5-1.7,1.5c-0.1,0.8-0.2,1.5-0.3,2.3
				c-2.6,0.2-5,0.4-7.5,0.6c-0.2,1.2-0.3,2.4-0.5,3.7c-2.6,0.2-5.1,0.4-7.7,0.6c-0.2,1.2-0.3,2.3-0.5,3.5c-2.6,0.3-5.1,0.6-7.6,1
				c-0.2,1.2-0.4,2.3-0.6,3.4c-1.5,0.1-2.8,0.2-4.2,0.4c-0.2,1.3-0.4,2.5-0.6,3.8c-2.6,0.1-5.2,0.3-7.8,0.4
				c-0.2,1.3-0.3,2.5-0.4,3.5c-4.9,1-17.6,0.7-20.1-0.4c-0.1-1-0.2-2-0.3-3.2c-2.6-0.1-5.2-0.3-7.8-0.4c-0.2-1.3-0.4-2.5-0.7-3.8
				c-1.5-0.1-2.8-0.2-4.2-0.3c-0.1-0.5-0.3-0.9-0.3-1.3c-0.3-2.1-0.3-2.1-2.4-2.3c-1.9-0.2-3.7-0.5-5.6-0.8
				c-0.2-1.3-0.3-2.3-0.4-3.4c-2.7-0.2-5.2-0.4-7.7-0.6c-0.2-1.4-0.3-2.6-0.5-3.7c-1.5-0.1-2.8-0.2-4.1-0.3
				c-0.3-1.2-0.5-2.3-0.8-3.4c-2.5-0.3-4.9-0.6-7.5-1c-0.2-1.2-0.3-2.4-0.4-3.5c-2.7-0.3-5.2-0.6-7.7-0.9c-0.1-1.3-0.3-2.4-0.4-3.6
				c-1.5-0.1-2.8-0.2-4.1-0.3c-0.1-1.3-0.2-2.4-0.3-3.7c-2.5-0.3-5-0.6-7.6-0.9c-0.1-0.7-0.1-1.3-0.2-1.8c-0.2-1.7-0.2-1.8-2-1.9
				c-0.8-0.1-1.5-0.1-2.4-0.2c-0.1-1.4-0.2-2.5-0.4-3.7c-1.5-0.1-2.7-0.2-4-0.3c-0.2-1.4-0.3-2.5-0.5-3.8c-2.6-0.2-5-0.4-7.5-0.6
				c-0.2-1.4-0.3-2.6-0.5-3.8c-1.5-0.1-2.7-0.2-4-0.3c-0.1-1.3-0.2-2.4-0.3-3.6c-0.7-0.1-1.2-0.2-1.8-0.2c-2.3-0.1-2.4-0.1-2.8-2.5
				c-0.2-1.1-0.7-1.4-1.8-1.5c-1.9-0.1-3.8-0.4-5.7-0.6c-0.1-1.3-0.3-2.4-0.4-3.7c-1.4-0.1-2.7-0.3-4-0.4c-0.1-1.4-0.2-2.6-0.3-3.8
				c-1.4-0.1-2.7-0.3-3.9-0.4c-0.1-1.3-0.3-2.5-0.4-3.6c-0.7-0.1-1.2-0.1-1.7-0.2c-2.4-0.1-2.4-0.1-2.6-2.4c0-0.5-0.2-0.9-0.3-1.4
				c-2.5-0.3-4.9-0.6-7.4-0.9c-0.1-1.4-0.2-2.5-0.3-3.8c-1.4-0.1-2.6-0.2-4-0.3c-0.1-1.4-0.2-2.6-0.4-3.9c-1.4-0.1-2.6-0.2-3.8-0.3
				c-0.2-1.3-0.3-2.5-0.4-3.7c-1.4-0.2-2.6-0.3-3.9-0.4c-0.1-1.4-0.2-2.5-0.3-3.7c-1.4-0.1-2.7-0.2-3.9-0.4
				c-0.1-1.4-0.2-2.6-0.4-3.9c-1.4-0.1-2.7-0.2-4-0.3c-0.2-1.3-0.3-2.3-0.4-3.2c-1.3-0.4-2.7-0.4-3.5-1.1c-0.7-0.7-0.7-2.2-1-3.3
				c-2.3-0.5-4.6-1-6.9-1.4c-0.2-1.2-0.4-2.3-0.7-3.4c-1.4-0.2-2.6-0.3-3.9-0.5c-0.2-1.4-0.3-2.6-0.4-3.8c-1.3-0.1-2.5-0.2-3.8-0.3
				c-0.1-1.4-0.3-2.6-0.4-3.9c-1.4-0.2-2.7-0.3-3.9-0.4c-0.1-1.3-0.2-2.4-0.3-3.6c-1.4-0.2-2.6-0.3-3.9-0.5
				c-0.1-1.4-0.3-2.6-0.4-3.8c-1.3-0.1-2.4-0.2-3.6-0.2c-0.2-1.4-0.4-2.7-0.6-4c-1.4-0.1-2.5-0.2-3.7-0.3c-0.1-0.7-0.1-1.2-0.1-1.7
				c-0.1-2.3-0.1-2.3-2.3-2.4c-0.6,0-1.2-0.2-1.7-0.2c-0.3-1.9-0.8-3.6-0.9-5.4c-0.1-1.5-0.7-2.2-2.2-2.2c-1.3,0-2.1-0.6-2.1-2
				c0.1-1.5-0.7-2.1-2.2-2.1c-1.2,0-1.9-0.7-1.9-2c0-0.7-0.2-1.4-0.2-2c-0.6-0.1-1-0.2-1.4-0.2c-2.2-0.2-2.2-0.2-2.4-2.4
				c0-0.6-0.2-1.2-0.3-1.9c-1.3-0.1-2.4-0.2-3.6-0.3c-0.1-1.5-0.3-2.7-0.4-4c-1.4-0.1-2.6-0.2-3.8-0.3c-0.1-1.4-0.2-2.6-0.3-4
				c-1.4-0.1-2.6-0.3-3.9-0.4c-0.1-1.4-0.2-2.5-0.3-3.8c-1.3-0.2-2.4-0.4-3.7-0.5c-0.1-1.3-0.2-2.5-0.3-3.7c-0.8-0.1-1.4-0.1-2-0.2
				c-0.6-0.1-1.2-0.2-1.7-0.3c-0.3-1.9-0.7-3.6-1-5.3c-0.3-1.9-0.3-1.9-2.3-2.3c-1.2-0.2-1.6-0.8-1.6-1.9c0-0.8-0.1-1.5-0.1-2.3
				c-1.4-0.2-2.6-0.3-3.8-0.4c-0.2-1.5-0.3-2.7-0.4-3.9c-1.4-0.1-2.5-0.2-3.7-0.3c-0.1-1.5-0.2-2.8-0.3-4c-1.4-0.1-2.6-0.2-3.7-0.3
				c-0.3-2.2-0.7-4.2-1-6.3c-0.1-0.8-0.4-1.3-1.3-1.5c-2.4-0.5-2.4-0.5-2.5-2.9c0-0.5-0.1-0.9-0.2-1.4c-1.3-0.1-2.4-0.2-3.6-0.3
				c-0.1-1.5-0.3-2.7-0.4-4c-1.3-0.1-2.5-0.2-3.6-0.3c-0.3-2-0.6-3.9-0.9-5.8c-0.3-1.8-0.2-1.8-2.2-2c-1.2-0.1-1.7-0.6-1.7-1.8
				c0-0.8-0.1-1.7-0.1-2.5c-1.4-0.1-2.6-0.3-3.8-0.4c-0.1-1.5-0.2-2.7-0.3-4c-1.3-0.1-2.4-0.3-3.5-0.4c-0.4-2.6-0.7-5.1-1-7.6
				c-1.3-0.1-2.3-0.3-3.5-0.4c-0.1-1.5-0.2-2.8-0.3-4.1c-1.4-0.1-2.6-0.2-3.8-0.3c-0.2-2.6-0.4-5.1-0.6-7.6
				c-1.3-0.2-2.5-0.4-3.8-0.6c-0.1-1.5-0.2-2.7-0.3-4c-1.3-0.1-2.5-0.3-3.5-0.4c-0.3-2.8-0.6-5.3-0.9-7.8c-1.3-0.2-2.4-0.3-3.5-0.5
				c-0.1-1.4-0.2-2.6-0.3-4c-1.3-0.2-2.4-0.3-3.8-0.5c-0.2-2.6-0.4-5.1-0.6-7.7c-1.3-0.1-2.4-0.2-3.7-0.4c-0.2-2.6-0.4-5.1-0.6-7.7
				c-1.3-0.2-2.4-0.3-3.6-0.5c-0.1-1.5-0.3-2.8-0.4-4.2c-1.4-0.2-2.5-0.4-3.7-0.6c-0.2-2.7-0.4-5.2-0.5-7.7
				c-1.4-0.1-2.6-0.3-3.8-0.4c-0.2-2.7-0.3-5.3-0.4-7.8c-1.4-0.2-2.5-0.3-3.8-0.4c-0.2-2.7-0.4-5.3-0.6-7.9
				c-1.3-0.2-2.4-0.3-3.5-0.5c-0.3-2.7-0.6-5.3-0.9-7.8c-1.3-0.1-2.3-0.3-3.3-0.4c-0.3-2-0.6-3.9-0.8-5.8c-0.1-1.4-0.4-2.3-2.1-2.2
				c-1.2,0-1.6-0.7-1.6-1.8c0-1.5-0.3-3-0.3-4.5c0-1.2-0.4-1.8-1.7-1.9c-0.7-0.1-1.3-0.3-1.9-0.4c-0.3-2.7-0.6-5.2-0.9-7.8
				c-1.2-0.2-2.2-0.4-3.4-0.5c-0.2-2.8-0.3-5.5-0.5-8.2c-1.3-0.2-2.5-0.3-3.7-0.4c-0.2-2.7-0.3-5.2-0.5-7.8
				c-1.3-0.2-2.4-0.4-3.7-0.6c-0.2-2.8-0.3-5.4-0.5-8.1c-1.3-0.2-2.4-0.3-3.5-0.4c-0.3-3.2-0.5-6.1-0.8-9.1
				c-0.3-2.7-0.3-2.7-3.1-3.1c-0.1,0-0.3-0.2-0.5-0.3c-0.2-2.6-0.3-5.2-0.5-7.9c-1.4-0.2-2.5-0.3-3.7-0.5c-0.1-2.7-0.3-5.4-0.4-8.1
				c-1.2-0.3-2.3-0.6-3.5-0.9c-0.3-3.9-0.6-7.7-0.9-11.5c-1.3-0.2-2.4-0.3-3.4-0.5c-0.1-0.6-0.1-1-0.2-1.4c-0.2-2.7-0.5-5.4-0.6-8.1
				c0-2-0.4-2.7-2.4-2.6c-0.4,0-0.7-0.2-1-0.3c-0.1-0.2-0.2-0.3-0.2-0.3c-0.1-2.2-0.1-4.5-0.3-6.7c-0.1-1.5-0.2-3.1-0.8-4.4
				c-0.3-0.6-1.8-0.7-2.8-1c-0.1,0-0.2-0.2-0.3-0.3c-0.2-3-0.4-6.1-0.7-9.1c-0.3-2.8-0.4-2.8-3.1-3.3c-0.1,0-0.2-0.2-0.5-0.4
				c-0.4-3.8,0-7.8-0.8-11.7c-1.2-0.2-2.2-0.3-3.2-0.5c-0.3-4.1-0.5-8.1-0.7-12.1c-1.3-0.3-2.4-0.5-3.5-0.7
				c-0.1-4.2-0.3-8.2-0.4-12.3c-1.2-0.3-2.3-0.5-3.6-0.7c-0.3-5.4-0.5-10.7-0.8-16c-1.3-0.2-2.3-0.4-3.5-0.6
				c-0.2-5.4-0.4-10.7-0.7-16.1c-1.2-0.2-2.3-0.4-3.4-0.7c-0.1-0.8-0.1-1.4-0.2-2c-0.2-5-0.4-10.1-0.7-15.1c-0.1-2.7-0.2-2.7-3-3.3
				c-0.1,0-0.3-0.2-0.5-0.4c-0.5-5.3,0-10.8-0.7-16.1c-0.4-0.2-0.4-0.3-0.5-0.3c-0.2-0.1-0.5-0.1-0.7-0.1c-2.1-0.3-2.1-0.3-2.2-2.3
				c-0.1-1.4-0.2-2.9-0.3-4.3c-0.1-5-0.2-10.1-0.4-15.1c-0.1-3.1-0.1-3.1-3.1-3.8c-0.1,0-0.2-0.2-0.6-0.6c-0.2-7.8-0.4-16-0.6-24.1
				c-0.8-0.1-1.2-0.2-1.7-0.3c-1.8-0.3-1.8-0.3-1.8-2.1c-0.1-4.3-0.2-8.6-0.3-12.9c-0.1-5.4-0.2-10.9-0.4-16.3
				c0-0.6-0.2-1.2-0.2-1.9c-1.2-0.2-2.3-0.4-3.3-0.6c-0.1-0.7-0.1-1.1-0.1-1.6c-0.1-13.3-0.2-26.6-0.4-39.8c0-1.8-0.1-3.5-0.3-5.3
				c-0.3-2.9-0.3-2.9-2.9-3.4c-0.1,0-0.2-0.2-0.4-0.3c-0.6-3.2-0.7-155.7-0.1-158.9c1.1-0.1,2.3-0.3,3.5-0.5
				c0.2-1.4,0.3-2.6,0.5-3.8c1.3-0.2,2.4-0.3,3.5-0.4c0.2-1.2,0.3-2.3,0.5-3.6c1,0,1.9,0,2.7-0.1c1.6-0.2,3.3-0.2,4.6-0.9
				c0.7-0.3,0.8-1.9,1.2-3.1c5.4-0.1,10.9-0.3,16.4-0.4c0.2-0.6,0.3-0.9,0.3-1.2c0.3-2.5,0.3-2.6,2.9-2.6c4-0.1,8-0.1,12-0.2
				c2,0,3.9-0.2,5.9-0.2c0.2-1.2,0.4-2.2,0.7-3.5c8.1-0.3,16.1-0.6,24.1-0.9c0.3-1.3,0.5-2.3,0.7-3.3c7-0.7,13.8,0,20.6-1
				c0.2-1.2,0.4-2.2,0.7-3.5c2,0,3.8,0,5.6,0c6.7-0.2,13.4-0.4,20.1-0.6c2.7-0.1,2.7-0.2,3.2-2.9c0-0.1,0.2-0.3,0.4-0.5
				c0.4-0.1,1-0.2,1.5-0.2c2.8-0.1,5.6-0.1,8.4-0.1c5.6-0.1,11.2-0.2,16.8-0.3c1,0,1.8-0.1,2.1-1.4c0.3-2.1,0.4-2.2,2.5-2.2
				c8.2-0.2,16.3-0.4,24.5-0.5c0.8,0,1.7-0.1,2.5-0.2c0.3-1.2,0.5-2.2,0.7-3.3c0.6-0.1,1.1-0.2,1.5-0.2c4.3-0.1,8.6-0.2,13-0.3
				c8.1-0.2,16.1-0.4,24.2-0.5c1.3,0,2.1-0.3,2.3-1.8c0.2-1.8,0.4-1.7,2.2-1.8c2.8-0.1,5.6-0.1,8.4-0.1c11-0.1,22.1-0.1,33.1-0.2
				c0.9,0,1.7-0.1,2.6-0.2c0.2-1.3,0.4-2.4,0.6-3.7c25.1-0.1,50.1-0.2,75-0.4c0.2-0.7,0.3-1.1,0.4-1.4c0.4-2,0.4-2.1,2.4-2.1
				c1.6-0.1,3.2-0.1,4.8-0.1c12,0,24,0,36,0C646.7,42.2,647.7,41.9,648.7,41.8z M581.4,578.8c0.1-2.6,0.2-5,0.2-7.4
				c0-111,0-221.9,0-332.9c0-0.6,0.1-1.3,0-1.9c-0.2-1.9-0.5-3.7-0.7-5.8c-1.3,0.1-2.4,0.1-3.5,0.2c-0.2,1.4-0.3,2.4-0.5,3.5
				c-0.8,0-1.5,0-2.1,0.1c-1.7,0.2-3.6,0.2-5.1,1c-0.7,0.3-0.8,2.1-1.2,3.2c-1.4,0.1-2.7,0.2-4.1,0.3c-0.2,1.4-0.3,2.4-0.5,3.6
				c-2.6,0.3-5.1,0.5-7.6,0.8c-0.1,1.3-0.2,2.4-0.4,3.5c-2.8,0.3-5.3,0.6-7.8,0.9c-0.2,1.3-0.3,2.4-0.4,3.5
				c-1.5,0.1-2.7,0.2-4.1,0.4c-0.2,1.4-0.3,2.6-0.4,3.7c-2,0.3-3.8,0.5-5.6,0.8c-1.8,0.3-1.9,0.3-2.1,2.2c-0.1,1.2-0.6,1.7-1.8,1.7
				c-0.8,0-1.7,0.1-2.6,0.1c-0.1,1.3-0.2,2.4-0.3,3.7c-1.4,0.2-2.7,0.3-4,0.5c-0.1,1.3-0.2,2.5-0.4,3.8c-1,0-1.8-0.1-2.6,0
				c-1.6,0.3-3.2,0.4-4.6,1.1c-0.6,0.3-0.5,1.9-0.8,2.8c0,0.1-0.2,0.2-0.4,0.4c-1.1,0.1-2.4,0.2-3.6,0.3c-0.1,1.4-0.3,2.7-0.4,3.9
				c-1.5,0.1-2.8,0.2-4,0.3c-0.1,1.3-0.2,2.4-0.3,3.7c-1.4,0.2-2.7,0.4-4,0.5c-0.1,1.3-0.2,2.5-0.3,3.6c-1.4,0.1-2.6,0.2-3.9,0.3
				c-0.2,1.4-0.3,2.7-0.4,4c-1.3,0.1-2.5,0.2-3.8,0.2c-0.3,1.2-0.5,2.3-0.7,3.5c-1.8,0.4-3.5,0.8-5.2,1c-1.7,0.3-1.7,0.2-2,2
				c-0.3,2-0.4,2.1-2.3,2.3c-0.5,0.1-1.1,0.2-1.5,0.3c-0.4,1.3-0.4,2.7-1.1,3.4c-0.7,0.7-2.2,0.7-3.3,0.9c-0.1,0.3-0.2,0.5-0.3,0.8
				c-0.3,2.4-0.3,2.4-2.7,2.8c-1,0.2-1.2,0.8-1.4,1.6c-0.4,2-0.9,4-1.4,6c-1.2,0.2-2.3,0.3-3.4,0.5c-0.1,1.5-0.2,2.7-0.4,4
				c-1.3,0.1-2.5,0.1-3.8,0.2c-0.2,1.4-0.3,2.6-0.5,3.9c-1.3,0.2-2.4,0.3-3.6,0.4c-0.1,1.4-0.2,2.5-0.3,3.8
				c-1.4,0.2-2.6,0.3-3.9,0.5c-0.1,1.3-0.2,2.5-0.3,3.8c-1.3,0.2-2.6,0.3-3.8,0.5c-0.1,1.4-0.2,2.7-0.3,3.9
				c-0.5,0.2-0.9,0.3-1.3,0.4c-2.2,0.4-2.1,0.4-2.4,2.4c-0.2,1.7-0.5,3.4-0.8,5.2c-1.3,0.2-2.4,0.3-3.6,0.5
				c-0.1,1.4-0.2,2.6-0.3,3.9c-1.3,0.2-2.6,0.3-3.9,0.5c-0.1,1.4-0.2,2.7-0.3,4c-0.5,0.2-1,0.3-1.4,0.4c-2,0.4-2,0.4-2.2,2.3
				c-0.3,1.8-0.6,3.6-0.9,5.4c-1.2,0.2-2.4,0.3-3.6,0.5c0,0.8-0.1,1.3-0.1,1.9c-0.1,2.2-0.1,2.2-2.2,2.6c-1.1,0.2-1.5,0.7-1.6,1.7
				c-0.2,2-0.6,4.1-0.9,6.2c-1.2,0.1-2.4,0.2-3.6,0.4c-0.2,2.6-0.4,5.2-0.6,7.7c-1.3,0.1-2.3,0.3-3.6,0.4c-0.1,1.5-0.3,2.8-0.4,4.2
				c-0.5,0.2-0.9,0.4-1.3,0.4c-1.9,0-2.4,0.7-2.4,2.5c0,1.8-0.3,3.6-0.5,5.5c-1.3,0.2-2.4,0.4-3.7,0.6c-0.2,2.6-0.3,5.2-0.5,7.8
				c-1.3,0.2-2.4,0.3-3.7,0.5c-0.2,2.6-0.4,5.2-0.5,7.8c-1.2,0.2-2.4,0.4-3.5,0.6c-0.2,2.8-0.4,5.4-0.7,8.1
				c-0.6,0.1-1.1,0.2-1.6,0.3c-1.9,0.2-1.9,0.2-2.1,2.1c-0.1,1.7-0.2,3.3-0.3,5c-0.2,1.6-0.4,3.3-0.6,4.9c-1.2,0.1-2.2,0.3-3.4,0.4
				c-0.2,2.9-0.3,5.6-0.5,8.3c-0.6,0.1-1,0.2-1.4,0.3c-1.9,0.3-1.9,0.3-2.1,2.1c-0.2,2-0.4,4-0.5,5.9c-0.1,1.3,0,2.7,0,4.1
				c-1.4,0.2-2.5,0.4-3.7,0.6c-0.3,4.1-0.5,8-0.8,12c-0.6,0.1-1.1,0.2-1.5,0.3c-1.8,0.2-1.9,0.2-2,2c-0.1,1.7-0.2,3.3-0.3,5
				c-0.2,3.1-0.3,6.2-0.5,9.3c-1.3,0.2-2.4,0.4-3.6,0.6c-0.2,5.6-0.3,11-0.5,16.4c-0.9,0.1-1.5,0.2-2.2,0.3
				c-0.9,0.1-1.2,0.6-1.3,1.4c-0.1,1.8-0.4,3.7-0.4,5.5c-0.1,4.2-0.1,8.3-0.2,12.5c0,1.8-0.1,3.6-0.2,5.3c-0.4,0.2-0.5,0.4-0.6,0.4
				c-2.7,0.6-2.8,0.6-2.8,3.3c-0.3,15.3-0.5,30.5-0.7,45.8c0,1.7,0.2,3.5,0.3,5.3c12.7,0,25.1,0,37.9,0c0.1-6.9,0.2-13.8,0.4-20.6
				c1.3-0.2,2.3-0.4,3.6-0.6c0-1,0-1.9,0-2.9c0.1-10.6,0.2-21.1,0.4-31.7c0-0.8,0.2-1.7,0.2-2.5c0.6-0.1,1-0.2,1.4-0.2
				c2.2-0.3,2.2-0.2,2.2-2.5c0.1-4.2,0.1-8.5,0.2-12.7c0-1.8,0.2-3.6,0.2-5.5c1.2-0.2,2.3-0.4,3.5-0.6c0.2-4.2,0.4-8.2,0.6-12.2
				c1.3-0.3,2.7-0.3,3.4-0.9c0.7-0.6,0.6-2,0.9-3c3-0.5,110.9-0.3,112.6,0.1c0.1,0.3,0.2,0.6,0.2,0.9c0.3,2.5,0.3,2.5,2.7,2.8
				c0.4,0,0.7,0.2,1.3,0.4c0,1.1,0,2.1,0,3.1c0,27.4,0,54.7,0,82.1c0,2.1,0.1,4.3,0.2,6.5C556.2,578.8,568.6,578.8,581.4,578.8z
				 M753.3,440.4c0.1-1.5,0.2-2.6,0.3-3.9c1.4-0.1,2.6-0.3,3.9-0.4c0.1-1.4,0.2-2.7,0.3-4c1.2-0.1,2.3-0.2,3.5-0.3
				c0.3-2.6,0.6-5.1,0.9-7.7c0.6-0.1,1.1-0.1,1.7-0.2c0.6-0.1,1.2-0.2,1.9-0.3c0.1-1.4,0.2-2.7,0.3-4c0.5-0.2,0.9-0.4,1.4-0.5
				c1.9-0.4,1.9-0.4,2.2-2.4c0.3-1.9,0.5-3.7,0.8-5.7c0.6-0.1,1.1-0.2,1.6-0.3c0.5-0.1,1-0.2,1.7-0.4c0.3-3.9,0.6-7.7,1-11.6
				c1.1-0.2,2.2-0.3,3.5-0.5c0.2-4.1,0.3-8.2,0.4-12.2c0.6-0.1,1-0.2,1.4-0.3c1.9-0.2,1.9-0.2,2.1-2.1c0.2-2.5,0.5-4.9,0.5-7.4
				c0-13.2,0-26.4,0-39.6c0-1.7-0.2-3.4-0.3-5.2c-1.3-0.3-2.2-0.4-3.4-0.7c-0.3-5.3-0.6-10.4-0.9-15.6c-1.3-0.3-2.3-0.5-3.5-0.7
				c-0.2-2.8-0.4-5.5-0.6-8.2c-1.3-0.2-2.4-0.3-3.6-0.5c-0.2-2.7-0.4-5.3-0.5-7.9c-1.3-0.2-2.4-0.4-3.4-0.6
				c-0.3-2.7-0.6-5.2-0.9-7.7c-1.3-0.1-2.4-0.2-3.5-0.3c-0.1-1.5-0.3-2.8-0.4-4.1c-0.7-0.1-1.2-0.2-1.7-0.2c-2.1-0.1-2-0.1-2.2-2.2
				c-0.1-1.9-0.4-3.7-0.6-5.6c-1.4-0.1-2.6-0.2-3.8-0.3c-0.1-1.5-0.2-2.7-0.4-4c-1.3-0.1-2.5-0.2-3.8-0.3c-0.1-1.3-0.2-2.6-0.4-3.9
				c-1.3-0.2-2.5-0.3-3.8-0.5c-0.1-0.8-0.1-1.3-0.2-1.9c-0.1-0.6-0.2-1.2-0.3-1.9c-1.4-0.1-2.6-0.3-3.8-0.4
				c-0.1-1.3-0.2-2.4-0.3-3.6c-1.4-0.1-2.7-0.3-4-0.4c-0.1-1.4-0.3-2.6-0.4-3.8c-2.6-0.2-5.1-0.4-7.5-0.6c-0.2-1.4-0.3-2.6-0.5-3.8
				c-1.5-0.1-2.8-0.2-4-0.3c-0.1-1.3-0.2-2.4-0.4-3.6c-2.7-0.3-5.3-0.5-7.9-0.8c-0.2-1.3-0.3-2.4-0.5-3.5c-2.7-0.3-5.3-0.5-7.8-0.7
				c-0.2-1.3-0.3-2.3-0.5-3.7c-2.8,0-5.5,0-8.2,0c-0.2-1.4-0.4-2.4-0.7-3.8c-5.3-0.3-10.6-0.6-15.9-0.9c-0.2-1.2-0.4-2.2-0.6-3.2
				c-4.3-0.8-63.4-0.9-66.8-0.1c0,1.2,0,2.5,0,3.7c0,112.1,0,224.1,0,336.2c0,0.8,0,1.6,0,2.4c0.1,1.7,0.2,3.5,0.3,5.1
				c3.2,0.6,39.7,0.6,41.8-0.1c0-2.1,0-4.2,0-6.4c0-27.7,0-55.3,0-83c0-2,0.1-4.1,0.2-6.4c9.8-0.1,19.2-0.3,28.7-0.4
				c0.2-1.4,0.4-2.5,0.6-3.6c4.2-0.2,8.2-0.5,12.2-0.7c0.1-0.6,0.3-1.2,0.4-1.7c0.3-1.7,0.3-1.7,2.1-1.9c1.6-0.1,3.2-0.1,4.8-0.3
				c1.6-0.2,3.3-0.4,4.8-0.6c0.2-1.3,0.4-2.4,0.6-3.3c2.8-0.3,5.3-0.5,7.9-0.8c0.2-1.3,0.4-2.4,0.5-3.6c1.4-0.1,2.7-0.2,4.1-0.3
				c0.1-1.3,0.2-2.4,0.4-3.6c2.7-0.3,5.2-0.6,7.7-0.9c0.2-1.3,0.3-2.4,0.4-3.5c1.4-0.1,2.7-0.3,4-0.4c0.1-1.4,0.3-2.6,0.4-3.8
				c1.5-0.1,2.7-0.3,4-0.4c0.1-1.4,0.2-2.6,0.3-3.8c1.4-0.1,2.6-0.2,3.9-0.3c0.1-1.4,0.3-2.5,0.4-3.7c1.4-0.2,2.5-0.4,3.7-0.5
				c0.1-1.4,0.2-2.6,0.3-3.8C750.8,440.6,751.9,440.5,753.3,440.4z M846.1,537c-0.2-0.5-0.2-0.6-0.3-0.6c0-0.1-0.1-0.2-0.1-0.2
				c0-0.2,0-0.3,0-0.5c0-0.1,0-0.2,0-0.2c0-0.2,0-0.3,0-0.5c0-100.5,0-201.1,0-301.6c0-0.2,0-0.5,0-0.7c0-0.1,0-0.2,0-0.2
				c0-0.1,0-0.2,0-0.2c0-0.2,0-0.3,0-0.5c0-0.1,0-0.2,0-0.2c0-0.1,0-0.2-0.1-0.2c0-0.1-0.1-0.2-0.1-0.2c0-0.1-0.1-0.1-0.3-0.3
				c-0.3,0-0.8-0.1-1.2-0.1c-11.5,0-23,0-34.6,0c-1.8,0-3.6,0.3-5.5,0.6c0,1.2,0,2.1,0,3.1c0,112.6,0,225.2,0,337.8
				c0,1.6,0.1,3.2,0.1,4.8c0.1,1.6,0.2,1.7,1.9,1.8c1.4,0.1,2.7,0.2,4.1,0.2c54.7,0,109.4,0,164.1,0c1.8,0,3.6-0.1,5.6-0.2
				c0.1-1,0.1-1.7,0.1-2.5c0-10.2,0.1-20.3,0.1-30.5c0-2.3-0.3-4.6-0.5-6.9c-0.1-1.1-0.6-1.5-1.7-1.6c-1.8,0-3.5-0.2-5.3-0.2
				c-41,0-81.9,0-122.9,0C848.4,537.1,847.2,537,846.1,537z"/>
			<path d="M497.5,348.2c0.1-1.3,0.2-2.5,0.3-3.8c1.3-0.1,2.4-0.2,3.8-0.4c0.1-1.3,0.2-2.5,0.4-4c1.2-0.1,2.3-0.2,3.7-0.3
				c0.1-1.3,0.2-2.5,0.3-4c1.3-0.1,2.5-0.2,3.9-0.3c0.1-1.2,0.2-2.4,0.3-3.9c1.2-0.1,2.5-0.2,3.9-0.4c0.1-1.2,0.2-2.3,0.3-3.7
				c1.2-0.1,2.4-0.3,3.8-0.4c0.2-1.3,0.3-2.5,0.5-3.9c1.3-0.1,2.4-0.2,3.7-0.3c0.1-1.3,0.3-2.6,0.4-3.9c1.4-0.1,2.6-0.2,4-0.3
				c0.1-1.3,0.2-2.4,0.4-3.6c1.4-0.2,2.6-0.4,3.9-0.6c0.1-1.3,0.2-2.4,0.2-3.5c1.9-0.3,3.7-0.7,5.6-1c2-0.3,2-0.2,2.3-2.2
				c0.1-0.4,0.2-0.8,0.3-1.3c1.1,0,2.2,0,3.6,0c0.1,1,0.2,2,0.2,3c0,23.5,0,47,0,70.5c0,18.9,0,37.7,0,56.6c0,1-0.1,2-0.2,3.2
				c-2.1,0.2-4.1,0.5-6.1,0.5c-30.8,0-61.6,0-92.4,0c-1.8,0-3.6-0.1-5.6-0.2c0-1.3,0-2.4,0-3.7c1.1-0.1,2.2-0.3,3.5-0.5
				c0.2-2.7,0.3-5.3,0.5-8.1c1.2-0.2,2.4-0.3,3.7-0.5c0.2-2.6,0.3-5.1,0.5-7.8c1.2-0.2,2.3-0.3,3.7-0.5c0.2-2.6,0.4-5.2,0.6-8
				c1.1-0.2,2.2-0.3,3.4-0.5c0.2-2.6,0.4-5.1,0.6-7.7c1.3-0.1,2.4-0.2,3.7-0.4c0.2-2.6,0.4-5.1,0.6-7.7c1.3-0.2,2.5-0.3,3.8-0.5
				c0.1-1.4,0.2-2.6,0.3-4.1c1.1-0.1,2.2-0.3,3.5-0.5c0.3-2.5,0.6-5,1-7.6c1.1-0.2,2.3-0.4,3.5-0.6c0.1-1.3,0.2-2.6,0.3-4
				c1.2-0.2,2.4-0.3,3.8-0.5c0.2-2.5,0.5-5,0.7-7.7c1.3-0.1,2.4-0.3,3.7-0.4c0.1-1.3,0.2-2.6,0.3-4c1.2-0.1,2.4-0.2,3.8-0.3
				c0.1-1.3,0.3-2.5,0.4-3.9c1.2-0.2,2.4-0.3,3.7-0.5c0.1-0.8,0.2-1.6,0.1-2.4c0-1.2,0.4-1.9,1.6-1.9c1.7,0,2.1-0.8,2.3-2.4
				c0.2-1.6,0.6-3.2,1-5.1C494.9,348.6,496.1,348.4,497.5,348.2z"/>
			<path d="M736.2,393.8c-1.4,0.2-2.5,0.3-3.7,0.5c-0.2,2.8-0.3,5.3-0.5,8c-1.3,0.1-2.5,0.2-3.7,0.4c-0.1,1.4-0.2,2.6-0.4,4
				c-1.2,0.1-2.4,0.3-3.6,0.4c-0.1,0.4-0.2,0.7-0.2,1c-0.1,0.9,0.1,2-0.3,2.5c-0.4,0.5-1.5,0.6-2.4,0.8c-0.9,0.2-1.1,0.9-1.1,1.6
				c-0.1,2.2-0.8,2.4-2.4,2.5c-1,0.1-1.6,0.4-1.8,1.5c-0.4,2.4-0.5,2.4-3,2.6c-0.3,0-0.6,0.2-0.8,0.2c-0.1,0.2-0.3,0.4-0.3,0.5
				c-0.4,3.1-0.4,3.1-3.7,3.4c-0.2,0-0.3,0.1-0.6,0.2c-0.1,0.5-0.2,1.1-0.2,1.7c-0.1,0.5-0.1,1.1-0.2,1.8c-1.4,0.1-2.7,0.3-4.1,0.4
				c-0.2,1.3-0.3,2.4-0.5,3.7c-2.6,0.2-5.1,0.3-7.8,0.5c-0.2,1.3-0.3,2.4-0.5,3.8c-1.6,0.1-3.2,0.2-4.8,0.3
				c-1.8,0.1-3.5,0.2-5.3,0.3c-1.2,0-1.8,0.5-1.8,1.7c0,0.6-0.2,1.2-0.4,2c-6.9,0.2-13.6,0.4-20.5,0.6c-0.2,1.2-0.4,2.2-0.6,3.4
				c-1.2,0-2.2,0-3.3,0c-0.6-2.3-0.9-168.1-0.2-171.5c0.6-0.1,1.3-0.2,2-0.2c6.6,0.1,13.1,0.2,19.7,0.3c2.5,0,2.5,0.1,2.8,2.6
				c0,0.3,0.1,0.6,0.3,1.2c2.7,0.1,5.5,0.3,8.2,0.4c0.3,1.2,0.3,2.6,1,3.2c0.7,0.6,2.1,0.5,3.2,0.6c1.3,0.2,2.7,0.3,4.2,0.4
				c0.2,1.2,0.3,2.3,0.5,3.5c2.6,0.2,5.1,0.5,7.8,0.7c0.1,1.3,0.2,2.4,0.4,3.7c1.3,0.1,2.6,0.2,3.9,0.3c0.2,1.3,0.3,2.5,0.5,3.9
				c1.2,0.1,2.3,0.2,3.6,0.3c0.2,1.2,0.3,2.5,0.5,3.8c1.3,0.1,2.4,0.3,3.8,0.4c0.1,1.2,0.2,2.4,0.3,3.7c1.2,0.2,2.5,0.3,3.8,0.5
				c0.1,1.3,0.3,2.6,0.4,3.9c1.2,0.1,2.3,0.2,3.5,0.3c0.3,2.5,0.6,5,1,7.6c1.1,0.2,2.2,0.3,3.3,0.5c0.3,1.9,0.5,3.8,0.8,5.7
				c0.3,2,0.3,2,2.2,2.3c0.5,0.1,0.9,0.3,1.4,0.5c0.1,2.7,0.3,5.3,0.4,8c1.2,0.2,2.2,0.4,3.6,0.7c0.8,16.5,0.7,33,0.1,49.6
				c-1.3,0.2-2.3,0.4-3.6,0.7C736.6,385.9,736.4,389.8,736.2,393.8z"/>
		</g>
	</g>
	<g>
		<g>
			<path class="st0" d="M648.7,41.8c15.2,0,30.4,0,45.6,0c1,0.2,2,0.5,3,0.5c12.2,0,24.3,0,36.5,0c1.7,0,3.4,0.1,5,0.1
				c0.9,0,1.5,0.4,1.6,1.4c0.1,0.7,0.3,1.4,0.4,2.2c5.2,0,10.2,0,15.3,0c5,0,9.9,0.1,14.9,0.1c5,0,10.1,0,15.1,0c5,0,9.9,0,14.9,0.1
				c5,0.1,10-0.2,15,0.2c0.2,1.4,0.3,2.4,0.5,3.6c0.8,0.1,1.5,0.2,2.1,0.2c4.2,0.1,8.5,0.1,12.7,0.1c9.7,0.1,19.4,0.2,29,0.2
				c2,0,2.1,0,2.5,2c0.2,1.2,0.9,1.5,2,1.5c4.5,0.1,8.9,0.3,13.4,0.4c7.9,0.2,15.8,0.2,23.8,0.4c0.6,0,1.2,0.2,1.8,0.2
				c0.2,1.2,0.4,2.2,0.7,3.2c9.8,0.6,19.4,0,29,0.8c0.2,0.4,0.3,0.6,0.4,0.8c0.5,2.6,0.5,2.6,3.1,2.6c7.9,0.1,15.8,0.3,23.7,0.4
				c0.8,0,1.5,0.1,2.1,0.2c0.2,0.4,0.3,0.4,0.3,0.5c0.1,0.2,0.1,0.5,0.2,0.7c0.3,2.1,0.3,2.1,2.3,2.2c1.4,0.1,2.7,0.3,4.1,0.3
				c6.8,0.2,13.6,0.3,20.4,0.4c2.1,0,2.1,0.1,2.4,2c0.1,0.5,0.2,0.9,0.4,1.6c6.9,0.2,13.7,0.4,20.5,0.7c0.3,1.3,0.5,2.2,0.7,3.3
				c8.1,0.8,16.2,0.1,24.2,1.2c0.2,1.2,0.4,2.2,0.6,3.3c6.9,0.1,13.7,0.3,20.5,0.4c0.2,1.4,0.4,2.4,0.6,3.8c5.5,0.1,11,0.3,16.3,0.4
				c0.5,1.2,0.7,2.7,1.5,3.3c0.8,0.6,2.3,0.5,3.5,0.7c0.2,0,0.3,0,0.5,0c3.1,0.3,3.1,0.3,3.7,3.2c0,0.1,0.2,0.3,0.3,0.4
				c3.2,0.7,3.2,0.7,3.6,3.9c0,0.1,0.2,0.3,0.3,0.5c1,0.1,2.2,0.3,3.6,0.5c0,2.1,0,4,0,5.9c-0.1,51.6-0.2,103.2-0.4,154.8
				c0,0.8-0.1,1.7-0.2,2.5c-1.3,0.2-2.3,0.4-3.3,0.6c-0.1,0.8-0.1,1.6-0.2,2.3c-0.1,9.8-0.1,19.7-0.2,29.5c0,4-0.1,8-0.1,12
				c0,1.7-0.1,1.8-1.9,2.1c-0.5,0.1-1,0.3-1.7,0.4c-0.8,11-0.3,21.9-0.8,32.8c-1.3,0.2-2.3,0.4-3.3,0.6c-0.6,8.2,0,16.4-0.9,24.5
				c-0.5,0.2-0.8,0.3-1.1,0.3c-2.3,0.4-2.3,0.4-2.4,2.6c-0.1,3.1-0.1,6.2-0.2,9.4c-0.1,3.2-0.2,6.4-0.3,9.6c0,1,0.1,2.3-0.5,3
				c-0.6,0.7-1.9,0.8-3.2,1.2c-0.2,6.6-0.4,13.2-0.5,19.9c-1.3,0.2-2.3,0.4-3.6,0.6c-0.2,5.5-0.5,10.9-0.7,16.3
				c-1.3,0.2-2.3,0.4-3.5,0.7c-0.2,5.5-0.5,10.8-0.7,16.1c-1.4,0.3-2.4,0.5-3.6,0.7c0,0.9-0.1,1.6-0.1,2.3
				c-0.1,3.4-0.2,6.9-0.4,10.3c-0.1,1,0,2.3-0.5,3c-0.6,0.7-1.9,0.8-3.2,1.2c-0.1,4-0.3,8.1-0.4,12.3c-1.2,0.2-2.3,0.4-3.5,0.6
				c-0.3,4.1-0.5,8-0.7,12c-0.5,0.1-0.9,0.2-1.3,0.3c-2.1,0.3-2.1,0.2-2.2,2.4c-0.1,2.8-0.2,5.6-0.4,8.4c-0.1,1.6-0.1,3.3-0.7,4.7
				c-0.4,0.8-2,0.9-3.4,1.4c0,0.7,0,1.5,0,2.3c-0.1,2.2-0.2,4.5-0.4,6.7c-0.3,2.5-0.4,2.4-2.9,3c-0.3,0.1-0.5,0.3-1.1,0.6
				c0,2.6,0,5.3,0,8.1c-0.9,0.2-1.5,0.3-2.1,0.4c-1.1,0.1-1.5,0.7-1.5,1.7c-0.1,1.8-0.3,3.7-0.4,5.5c-0.1,1.6-0.2,3.2-0.3,4.8
				c-1.2,0.2-2.4,0.4-3.6,0.7c-0.1,2.3-0.1,4.3-0.3,6.4c-0.1,1.6-0.1,3.3-0.8,4.7c-0.4,0.8-2,0.9-3.2,1.3c-0.1,2.6-0.3,5.3-0.4,8
				c-1.3,0.2-2.4,0.3-3.7,0.5c-0.2,4-0.5,7.8-0.7,11.6c-0.5,0.2-0.8,0.3-1,0.3c-2.7,0.3-2.7,0.3-2.8,2.9c-0.1,1.9-0.2,3.8-0.3,5.7
				c-1.3,0.1-2.4,0.2-3.6,0.4c-0.2,2.8-0.3,5.5-0.5,8.2c-1.3,0.2-2.4,0.3-3.7,0.5c-0.2,2.7-0.4,5.3-0.5,7.9
				c-0.5,0.1-0.9,0.2-1.3,0.3c-2,0.2-2,0.2-2.2,2.3c-0.2,2-0.5,4.1-0.8,6.1c-1.1,0.2-2.1,0.3-3.2,0.5c-0.3,2.6-0.6,5.1-0.9,7.8
				c-0.6,0.1-1.2,0.3-1.9,0.4c-1.2,0.1-1.7,0.6-1.7,1.8c0,1.5-0.3,3-0.3,4.5c0,1.3-0.5,2-1.8,1.9c-1.5,0-1.8,0.8-1.9,2.1
				c-0.2,2-0.5,3.9-0.8,5.9c-0.4,0.1-0.8,0.2-1.2,0.2c-2,0.2-2,0.2-2.2,2.2c-0.3,1.9-0.5,3.8-0.8,5.7c-1.1,0.2-2.3,0.3-3.4,0.5
				c-0.3,2.8-0.5,5.4-0.8,8c-1.3,0.2-2.4,0.3-3.5,0.4c-0.2,2.7-0.4,5.2-0.6,7.8c-1.4,0.2-2.5,0.3-3.7,0.4c-0.2,2.7-0.3,5.1-0.5,7.7
				c-1.3,0.2-2.4,0.4-3.7,0.6c-0.2,1.5-0.3,2.9-0.4,4.2c-1.3,0.2-2.4,0.3-3.5,0.5c-0.2,2.7-0.4,5.1-0.6,7.7
				c-1.3,0.2-2.5,0.3-3.8,0.4c-0.2,2.6-0.4,5.1-0.6,7.6c-1.3,0.2-2.5,0.4-3.7,0.5c-0.1,1.5-0.2,2.8-0.3,4.2
				c-1.3,0.2-2.4,0.4-3.5,0.6c-0.3,2.7-0.6,5.1-0.9,7.6c-1.3,0.1-2.4,0.3-3.6,0.4c-0.1,1.5-0.2,2.7-0.3,4c-1.4,0.2-2.5,0.4-3.8,0.5
				c-0.2,2.6-0.5,5.1-0.7,7.7c-1.4,0.1-2.5,0.2-3.8,0.3c-0.1,1.5-0.2,2.8-0.3,4.1c-1.4,0.2-2.4,0.3-3.5,0.4c-0.3,2.7-0.6,5.2-1,7.7
				c-1.3,0.1-2.4,0.2-3.5,0.3c-0.1,1.4-0.3,2.7-0.4,4c-1.3,0.1-2.5,0.3-3.6,0.4c-0.4,2.6-0.7,5.1-1,7.6c-1.3,0.2-2.4,0.3-3.5,0.5
				c-0.1,1.5-0.2,2.7-0.3,4.1c-1.3,0.1-2.5,0.2-3.7,0.3c-0.2,1.4-0.3,2.8-0.5,4.1c-1.3,0.1-2.4,0.2-3.5,0.3
				c-0.4,2.6-0.7,5.1-1.1,7.6c-1.3,0.2-2.4,0.3-3.5,0.4c-0.1,1.5-0.3,2.7-0.4,4c-1.3,0.1-2.5,0.2-3.8,0.3c-0.1,1.4-0.3,2.7-0.4,4
				c-1.3,0.1-2.4,0.2-3.6,0.3c-0.2,1.4-0.3,2.7-0.5,4c-1.3,0.2-2.4,0.3-3.6,0.4c-0.1,0.6-0.2,1-0.2,1.5c-0.1,2.3-0.1,2.4-2.3,2.7
				c-1.1,0.2-1.4,0.7-1.6,1.7c-0.3,1.9-0.6,3.9-1,5.9c-1.2,0.1-2.4,0.3-3.7,0.4c-0.1,1.3-0.2,2.5-0.4,3.8c-1.3,0.2-2.6,0.3-3.8,0.5
				c-0.1,1.4-0.2,2.6-0.4,3.8c-1.3,0.1-2.5,0.2-3.7,0.4c-0.1,1.4-0.2,2.7-0.4,3.9c-1.4,0.1-2.6,0.2-3.8,0.3
				c-0.1,1.4-0.2,2.6-0.4,3.9c-0.7,0.1-1.2,0.2-1.7,0.2c-0.6,0.1-1.2,0.1-2,0.2c-0.1,0.8-0.1,1.5-0.2,2.2c-0.1,1.8-0.1,1.8-1.9,2.1
				c-0.5,0.1-1.1,0.2-1.7,0.3c-0.1,0.5-0.2,0.8-0.2,1.2c-0.2,2.3-0.2,2.3-2.6,2.8c-1,0.2-1.3,0.7-1.5,1.6c-0.3,1.9-0.7,3.9-1.1,5.8
				c-1.2,0.2-2.4,0.3-3.6,0.5c-0.1,0.7-0.1,1.2-0.2,1.8c-0.1,0.6-0.1,1.2-0.1,2c-0.7,0.1-1.4,0.2-2,0.2c-2,0.2-2,0.2-2.1,2.1
				c-0.1,0.7-0.1,1.4-0.2,2c-1.3,0.1-2.4,0.2-3.6,0.3c-0.2,1.4-0.4,2.7-0.6,4c-1.4,0.1-2.6,0.2-3.7,0.3c-0.1,1.4-0.2,2.6-0.3,3.8
				c-1.4,0.2-2.7,0.3-3.9,0.5c-0.1,1.3-0.2,2.4-0.3,3.6c-1.3,0.1-2.6,0.2-3.9,0.4c-0.2,1.4-0.3,2.7-0.5,4c-1.3,0.1-2.5,0.2-3.7,0.2
				c-0.2,1.4-0.3,2.5-0.5,3.8c-1.3,0.2-2.5,0.3-3.8,0.5c-0.2,1.3-0.3,2.4-0.4,3.4c-2.6,0.5-4.9,0.9-7.2,1.3
				c-0.4,1.3-0.4,2.7-1.1,3.4c-0.7,0.7-2.2,0.7-3.4,1c-0.2,1.1-0.3,2.2-0.5,3.3c-1.4,0.2-2.6,0.3-3.9,0.5c-0.1,0.8-0.1,1.4-0.2,1.9
				c-0.1,0.6-0.2,1.2-0.3,1.8c-1.4,0.1-2.6,0.2-3.9,0.3c-0.1,1.4-0.2,2.6-0.3,3.8c-1.4,0.1-2.5,0.3-3.8,0.4
				c-0.2,1.2-0.3,2.4-0.5,3.6c-1.3,0.1-2.5,0.3-3.8,0.4c-0.1,1.4-0.2,2.7-0.3,3.9c-1.5,0.1-2.8,0.2-4,0.3c-0.1,1.4-0.2,2.5-0.3,3.7
				c-1.8,0.2-3.5,0.5-5.1,0.7c-2.2,0.2-2.3,0.2-2.5,2.4c-0.1,1.2-0.7,1.7-1.8,1.8c-0.8,0-1.5,0.1-2.4,0.2c-0.1,0.7-0.1,1.3-0.2,1.8
				c-0.1,0.6-0.2,1.2-0.3,1.8c-1.4,0.1-2.7,0.2-3.9,0.3c-0.1,1.4-0.2,2.6-0.3,3.8c-1.4,0.1-2.6,0.2-4,0.3c-0.1,1.3-0.2,2.5-0.4,3.7
				c-1.8,0.2-3.5,0.5-5.2,0.7c-2.2,0.2-2.3,0.2-2.5,2.4c-0.1,1.1-0.5,1.6-1.6,1.6c-0.8,0-1.7,0.1-2.6,0.2c-0.1,1.4-0.3,2.5-0.4,3.7
				c-1.4,0.1-2.6,0.2-3.9,0.3c-0.2,1.3-0.3,2.6-0.5,3.8c-2,0.3-3.9,0.6-5.8,0.8c-0.8,0.1-1.4,0.3-1.6,1.2c-0.2,0.8-0.3,1.9-0.8,2.4
				c-0.6,0.4-1.7,0.2-2.5,0.3c-0.4,0-0.8,0.1-1.3,0.2c-0.1,1.2-0.3,2.4-0.4,3.6c-0.8,0.1-1.5,0.1-2.2,0.2c-1.8,0.1-1.9,0.2-2,1.9
				c-0.1,0.6-0.1,1.2-0.2,1.9c-2.6,0.3-5.1,0.5-7.6,0.7c-0.1,0.8-0.1,1.3-0.2,1.9c-0.1,0.6-0.2,1.2-0.3,1.9c-1.4,0.1-2.7,0.2-4,0.2
				c-0.2,1.3-0.3,2.4-0.4,3.6c-2.6,0.3-5.1,0.6-7.6,0.9c-0.1,1.2-0.3,2.4-0.5,3.7c-1,0-1.9,0-2.8,0c-1.1,0-1.6,0.5-1.7,1.5
				c-0.1,0.8-0.2,1.5-0.3,2.3c-2.6,0.2-5,0.4-7.5,0.6c-0.2,1.2-0.3,2.4-0.5,3.7c-2.6,0.2-5.1,0.4-7.7,0.6c-0.2,1.2-0.3,2.3-0.5,3.5
				c-2.6,0.3-5.1,0.6-7.6,1c-0.2,1.2-0.4,2.3-0.6,3.4c-1.5,0.1-2.8,0.2-4.2,0.4c-0.2,1.3-0.4,2.5-0.6,3.8c-2.6,0.1-5.2,0.3-7.8,0.4
				c-0.2,1.3-0.3,2.5-0.4,3.5c-4.9,1-17.6,0.7-20.1-0.4c-0.1-1-0.2-2-0.3-3.2c-2.6-0.1-5.2-0.3-7.8-0.4c-0.2-1.3-0.4-2.5-0.7-3.8
				c-1.5-0.1-2.8-0.2-4.2-0.3c-0.1-0.5-0.3-0.9-0.3-1.3c-0.3-2.1-0.3-2.1-2.4-2.3c-1.9-0.2-3.7-0.5-5.6-0.8
				c-0.2-1.3-0.3-2.3-0.4-3.4c-2.7-0.2-5.2-0.4-7.7-0.6c-0.2-1.4-0.3-2.6-0.5-3.7c-1.5-0.1-2.8-0.2-4.1-0.3
				c-0.3-1.2-0.5-2.3-0.8-3.4c-2.5-0.3-4.9-0.6-7.5-1c-0.2-1.2-0.3-2.4-0.4-3.5c-2.7-0.3-5.2-0.6-7.7-0.9c-0.1-1.3-0.3-2.4-0.4-3.6
				c-1.5-0.1-2.8-0.2-4.1-0.3c-0.1-1.3-0.2-2.4-0.3-3.7c-2.5-0.3-5-0.6-7.6-0.9c-0.1-0.7-0.1-1.3-0.2-1.8c-0.2-1.7-0.2-1.8-2-1.9
				c-0.8-0.1-1.5-0.1-2.4-0.2c-0.1-1.4-0.2-2.5-0.4-3.7c-1.5-0.1-2.7-0.2-4-0.3c-0.2-1.4-0.3-2.5-0.5-3.8c-2.6-0.2-5-0.4-7.5-0.6
				c-0.2-1.4-0.3-2.6-0.5-3.8c-1.5-0.1-2.7-0.2-4-0.3c-0.1-1.3-0.2-2.4-0.3-3.6c-0.7-0.1-1.2-0.2-1.8-0.2c-2.3-0.1-2.4-0.1-2.8-2.5
				c-0.2-1.1-0.7-1.4-1.8-1.5c-1.9-0.1-3.8-0.4-5.7-0.6c-0.1-1.3-0.3-2.4-0.4-3.7c-1.4-0.1-2.7-0.3-4-0.4c-0.1-1.4-0.2-2.6-0.3-3.8
				c-1.4-0.1-2.7-0.3-3.9-0.4c-0.1-1.3-0.3-2.5-0.4-3.6c-0.7-0.1-1.2-0.1-1.7-0.2c-2.4-0.1-2.4-0.1-2.6-2.4c0-0.5-0.2-0.9-0.3-1.4
				c-2.5-0.3-4.9-0.6-7.4-0.9c-0.1-1.4-0.2-2.5-0.3-3.8c-1.4-0.1-2.6-0.2-4-0.3c-0.1-1.4-0.2-2.6-0.4-3.9c-1.4-0.1-2.6-0.2-3.8-0.3
				c-0.2-1.3-0.3-2.5-0.4-3.7c-1.4-0.2-2.6-0.3-3.9-0.4c-0.1-1.4-0.2-2.5-0.3-3.7c-1.4-0.1-2.7-0.2-3.9-0.4
				c-0.1-1.4-0.2-2.6-0.4-3.9c-1.4-0.1-2.7-0.2-4-0.3c-0.2-1.3-0.3-2.3-0.4-3.2c-1.3-0.4-2.7-0.4-3.5-1.1c-0.7-0.7-0.7-2.2-1-3.3
				c-2.3-0.5-4.6-1-6.9-1.4c-0.2-1.2-0.4-2.3-0.7-3.4c-1.4-0.2-2.6-0.3-3.9-0.5c-0.2-1.4-0.3-2.6-0.4-3.8c-1.3-0.1-2.5-0.2-3.8-0.3
				c-0.1-1.4-0.3-2.6-0.4-3.9c-1.4-0.2-2.7-0.3-3.9-0.4c-0.1-1.3-0.2-2.4-0.3-3.6c-1.4-0.2-2.6-0.3-3.9-0.5
				c-0.1-1.4-0.3-2.6-0.4-3.8c-1.3-0.1-2.4-0.2-3.6-0.2c-0.2-1.4-0.4-2.7-0.6-4c-1.4-0.1-2.5-0.2-3.7-0.3c-0.1-0.7-0.1-1.2-0.1-1.7
				c-0.1-2.3-0.1-2.3-2.3-2.4c-0.6,0-1.2-0.2-1.7-0.2c-0.3-1.9-0.8-3.6-0.9-5.4c-0.1-1.5-0.7-2.2-2.2-2.2c-1.3,0-2.1-0.6-2.1-2
				c0.1-1.5-0.7-2.1-2.2-2.1c-1.2,0-1.9-0.7-1.9-2c0-0.7-0.2-1.4-0.2-2c-0.6-0.1-1-0.2-1.4-0.2c-2.2-0.2-2.2-0.2-2.4-2.4
				c0-0.6-0.2-1.2-0.3-1.9c-1.3-0.1-2.4-0.2-3.6-0.3c-0.1-1.5-0.3-2.7-0.4-4c-1.4-0.1-2.6-0.2-3.8-0.3c-0.1-1.4-0.2-2.6-0.3-4
				c-1.4-0.1-2.6-0.3-3.9-0.4c-0.1-1.4-0.2-2.5-0.3-3.8c-1.3-0.2-2.4-0.4-3.7-0.5c-0.1-1.3-0.2-2.5-0.3-3.7c-0.8-0.1-1.4-0.1-2-0.2
				c-0.6-0.1-1.2-0.2-1.7-0.3c-0.3-1.9-0.7-3.6-1-5.3c-0.3-1.9-0.3-1.9-2.3-2.3c-1.2-0.2-1.6-0.8-1.6-1.9c0-0.8-0.1-1.5-0.1-2.3
				c-1.4-0.2-2.6-0.3-3.8-0.4c-0.2-1.5-0.3-2.7-0.4-3.9c-1.4-0.1-2.5-0.2-3.7-0.3c-0.1-1.5-0.2-2.8-0.3-4c-1.4-0.1-2.6-0.2-3.7-0.3
				c-0.3-2.2-0.7-4.2-1-6.3c-0.1-0.8-0.4-1.3-1.3-1.5c-2.4-0.5-2.4-0.5-2.5-2.9c0-0.5-0.1-0.9-0.2-1.4c-1.3-0.1-2.4-0.2-3.6-0.3
				c-0.1-1.5-0.3-2.7-0.4-4c-1.3-0.1-2.5-0.2-3.6-0.3c-0.3-2-0.6-3.9-0.9-5.8c-0.3-1.8-0.2-1.8-2.2-2c-1.2-0.1-1.7-0.6-1.7-1.8
				c0-0.8-0.1-1.7-0.1-2.5c-1.4-0.1-2.6-0.3-3.8-0.4c-0.1-1.5-0.2-2.7-0.3-4c-1.3-0.1-2.4-0.3-3.5-0.4c-0.4-2.6-0.7-5.1-1-7.6
				c-1.3-0.1-2.3-0.3-3.5-0.4c-0.1-1.5-0.2-2.8-0.3-4.1c-1.4-0.1-2.6-0.2-3.8-0.3c-0.2-2.6-0.4-5.1-0.6-7.6
				c-1.3-0.2-2.5-0.4-3.8-0.6c-0.1-1.5-0.2-2.7-0.3-4c-1.3-0.1-2.5-0.3-3.5-0.4c-0.3-2.8-0.6-5.3-0.9-7.8c-1.3-0.2-2.4-0.3-3.5-0.5
				c-0.1-1.4-0.2-2.6-0.3-4c-1.3-0.2-2.4-0.3-3.8-0.5c-0.2-2.6-0.4-5.1-0.6-7.7c-1.3-0.1-2.4-0.2-3.7-0.4c-0.2-2.6-0.4-5.1-0.6-7.7
				c-1.3-0.2-2.4-0.3-3.6-0.5c-0.1-1.5-0.3-2.8-0.4-4.2c-1.4-0.2-2.5-0.4-3.7-0.6c-0.2-2.7-0.4-5.2-0.5-7.7
				c-1.4-0.1-2.6-0.3-3.8-0.4c-0.2-2.7-0.3-5.3-0.4-7.8c-1.4-0.2-2.5-0.3-3.8-0.4c-0.2-2.7-0.4-5.3-0.6-7.9
				c-1.3-0.2-2.4-0.3-3.5-0.5c-0.3-2.7-0.6-5.3-0.9-7.8c-1.3-0.1-2.3-0.3-3.3-0.4c-0.3-2-0.6-3.9-0.8-5.8c-0.1-1.4-0.4-2.3-2.1-2.2
				c-1.2,0-1.6-0.7-1.6-1.8c0-1.5-0.3-3-0.3-4.5c0-1.2-0.4-1.8-1.7-1.9c-0.7-0.1-1.3-0.3-1.9-0.4c-0.3-2.7-0.6-5.2-0.9-7.8
				c-1.2-0.2-2.2-0.4-3.4-0.5c-0.2-2.8-0.3-5.5-0.5-8.2c-1.3-0.2-2.5-0.3-3.7-0.4c-0.2-2.7-0.3-5.2-0.5-7.8
				c-1.3-0.2-2.4-0.4-3.7-0.6c-0.2-2.8-0.3-5.4-0.5-8.1c-1.3-0.2-2.4-0.3-3.5-0.4c-0.3-3.2-0.5-6.1-0.8-9.1
				c-0.3-2.7-0.3-2.7-3.1-3.1c-0.1,0-0.3-0.2-0.5-0.3c-0.2-2.6-0.3-5.2-0.5-7.9c-1.4-0.2-2.5-0.3-3.7-0.5c-0.1-2.7-0.3-5.4-0.4-8.1
				c-1.2-0.3-2.3-0.6-3.5-0.9c-0.3-3.9-0.6-7.7-0.9-11.5c-1.3-0.2-2.4-0.3-3.4-0.5c-0.1-0.6-0.1-1-0.2-1.4c-0.2-2.7-0.5-5.4-0.6-8.1
				c0-2-0.4-2.7-2.4-2.6c-0.4,0-0.7-0.2-1-0.3c-0.1-0.2-0.2-0.3-0.2-0.3c-0.1-2.2-0.1-4.5-0.3-6.7c-0.1-1.5-0.2-3.1-0.8-4.4
				c-0.3-0.6-1.8-0.7-2.8-1c-0.1,0-0.2-0.2-0.3-0.3c-0.2-3-0.4-6.1-0.7-9.1c-0.3-2.8-0.4-2.8-3.1-3.3c-0.1,0-0.2-0.2-0.5-0.4
				c-0.4-3.8,0-7.8-0.8-11.7c-1.2-0.2-2.2-0.3-3.2-0.5c-0.3-4.1-0.5-8.1-0.7-12.1c-1.3-0.3-2.4-0.5-3.5-0.7
				c-0.1-4.2-0.3-8.2-0.4-12.3c-1.2-0.3-2.3-0.5-3.6-0.7c-0.3-5.4-0.5-10.7-0.8-16c-1.3-0.2-2.3-0.4-3.5-0.6
				c-0.2-5.4-0.4-10.7-0.7-16.1c-1.2-0.2-2.3-0.4-3.4-0.7c-0.1-0.8-0.1-1.4-0.2-2c-0.2-5-0.4-10.1-0.7-15.1c-0.1-2.7-0.2-2.7-3-3.3
				c-0.1,0-0.3-0.2-0.5-0.4c-0.5-5.3,0-10.8-0.7-16.1c-0.4-0.2-0.4-0.3-0.5-0.3c-0.2-0.1-0.5-0.1-0.7-0.1c-2.1-0.3-2.1-0.3-2.2-2.3
				c-0.1-1.4-0.2-2.9-0.3-4.3c-0.1-5-0.2-10.1-0.4-15.1c-0.1-3.1-0.1-3.1-3.1-3.8c-0.1,0-0.2-0.2-0.6-0.6c-0.2-7.8-0.4-16-0.6-24.1
				c-0.8-0.1-1.2-0.2-1.7-0.3c-1.8-0.3-1.8-0.3-1.8-2.1c-0.1-4.3-0.2-8.6-0.3-12.9c-0.1-5.4-0.2-10.9-0.4-16.3
				c0-0.6-0.2-1.2-0.2-1.9c-1.2-0.2-2.3-0.4-3.3-0.6c-0.1-0.7-0.1-1.1-0.1-1.6c-0.1-13.3-0.2-26.6-0.4-39.8c0-1.8-0.1-3.5-0.3-5.3
				c-0.3-2.9-0.3-2.9-2.9-3.4c-0.1,0-0.2-0.2-0.4-0.3c-0.6-3.2-0.7-155.7-0.1-158.9c1.1-0.1,2.3-0.3,3.5-0.5
				c0.2-1.4,0.3-2.6,0.5-3.8c1.3-0.2,2.4-0.3,3.5-0.4c0.2-1.2,0.3-2.3,0.5-3.6c1,0,1.9,0,2.7-0.1c1.6-0.2,3.3-0.2,4.6-0.9
				c0.7-0.3,0.8-1.9,1.2-3.1c5.4-0.1,10.9-0.3,16.4-0.4c0.2-0.6,0.3-0.9,0.3-1.2c0.3-2.5,0.3-2.6,2.9-2.6c4-0.1,8-0.1,12-0.2
				c2,0,3.9-0.2,5.9-0.2c0.2-1.2,0.4-2.2,0.7-3.5c8.1-0.3,16.1-0.6,24.1-0.9c0.3-1.3,0.5-2.3,0.7-3.3c7-0.7,13.8,0,20.6-1
				c0.2-1.2,0.4-2.2,0.7-3.5c2,0,3.8,0,5.6,0c6.7-0.2,13.4-0.4,20.1-0.6c2.7-0.1,2.7-0.2,3.2-2.9c0-0.1,0.2-0.3,0.4-0.5
				c0.4-0.1,1-0.2,1.5-0.2c2.8-0.1,5.6-0.1,8.4-0.1c5.6-0.1,11.2-0.2,16.8-0.3c1,0,1.8-0.1,2.1-1.4c0.3-2.1,0.4-2.2,2.5-2.2
				c8.2-0.2,16.3-0.4,24.5-0.5c0.8,0,1.7-0.1,2.5-0.2c0.3-1.2,0.5-2.2,0.7-3.3c0.6-0.1,1.1-0.2,1.5-0.2c4.3-0.1,8.6-0.2,13-0.3
				c8.1-0.2,16.1-0.4,24.2-0.5c1.3,0,2.1-0.3,2.3-1.8c0.2-1.8,0.4-1.7,2.2-1.8c2.8-0.1,5.6-0.1,8.4-0.1c11-0.1,22.1-0.1,33.1-0.2
				c0.9,0,1.7-0.1,2.6-0.2c0.2-1.3,0.4-2.4,0.6-3.7c25.1-0.1,50.1-0.2,75-0.4c0.2-0.7,0.3-1.1,0.4-1.4c0.4-2,0.4-2.1,2.4-2.1
				c1.6-0.1,3.2-0.1,4.8-0.1c12,0,24,0,36,0C646.7,42.2,647.7,41.9,648.7,41.8z M581.4,578.8c0.1-2.6,0.2-5,0.2-7.4
				c0-111,0-221.9,0-332.9c0-0.6,0.1-1.3,0-1.9c-0.2-1.9-0.5-3.7-0.7-5.8c-1.3,0.1-2.4,0.1-3.5,0.2c-0.2,1.4-0.3,2.4-0.5,3.5
				c-0.8,0-1.5,0-2.1,0.1c-1.7,0.2-3.6,0.2-5.1,1c-0.7,0.3-0.8,2.1-1.2,3.2c-1.4,0.1-2.7,0.2-4.1,0.3c-0.2,1.4-0.3,2.4-0.5,3.6
				c-2.6,0.3-5.1,0.5-7.6,0.8c-0.1,1.3-0.2,2.4-0.4,3.5c-2.8,0.3-5.3,0.6-7.8,0.9c-0.2,1.3-0.3,2.4-0.4,3.5
				c-1.5,0.1-2.7,0.2-4.1,0.4c-0.2,1.4-0.3,2.6-0.4,3.7c-2,0.3-3.8,0.5-5.6,0.8c-1.8,0.3-1.9,0.3-2.1,2.2c-0.1,1.2-0.6,1.7-1.8,1.7
				c-0.8,0-1.7,0.1-2.6,0.1c-0.1,1.3-0.2,2.4-0.3,3.7c-1.4,0.2-2.7,0.3-4,0.5c-0.1,1.3-0.2,2.5-0.4,3.8c-1,0-1.8-0.1-2.6,0
				c-1.6,0.3-3.2,0.4-4.6,1.1c-0.6,0.3-0.5,1.9-0.8,2.8c0,0.1-0.2,0.2-0.4,0.4c-1.1,0.1-2.4,0.2-3.6,0.3c-0.1,1.4-0.3,2.7-0.4,3.9
				c-1.5,0.1-2.8,0.2-4,0.3c-0.1,1.3-0.2,2.4-0.3,3.7c-1.4,0.2-2.7,0.4-4,0.5c-0.1,1.3-0.2,2.5-0.3,3.6c-1.4,0.1-2.6,0.2-3.9,0.3
				c-0.2,1.4-0.3,2.7-0.4,4c-1.3,0.1-2.5,0.2-3.8,0.2c-0.3,1.2-0.5,2.3-0.7,3.5c-1.8,0.4-3.5,0.8-5.2,1c-1.7,0.3-1.7,0.2-2,2
				c-0.3,2-0.4,2.1-2.3,2.3c-0.5,0.1-1.1,0.2-1.5,0.3c-0.4,1.3-0.4,2.7-1.1,3.4c-0.7,0.7-2.2,0.7-3.3,0.9c-0.1,0.3-0.2,0.5-0.3,0.8
				c-0.3,2.4-0.3,2.4-2.7,2.8c-1,0.2-1.2,0.8-1.4,1.6c-0.4,2-0.9,4-1.4,6c-1.2,0.2-2.3,0.3-3.4,0.5c-0.1,1.5-0.2,2.7-0.4,4
				c-1.3,0.1-2.5,0.1-3.8,0.2c-0.2,1.4-0.3,2.6-0.5,3.9c-1.3,0.2-2.4,0.3-3.6,0.4c-0.1,1.4-0.2,2.5-0.3,3.8
				c-1.4,0.2-2.6,0.3-3.9,0.5c-0.1,1.3-0.2,2.5-0.3,3.8c-1.3,0.2-2.6,0.3-3.8,0.5c-0.1,1.4-0.2,2.7-0.3,3.9
				c-0.5,0.2-0.9,0.3-1.3,0.4c-2.2,0.4-2.1,0.4-2.4,2.4c-0.2,1.7-0.5,3.4-0.8,5.2c-1.3,0.2-2.4,0.3-3.6,0.5
				c-0.1,1.4-0.2,2.6-0.3,3.9c-1.3,0.2-2.6,0.3-3.9,0.5c-0.1,1.4-0.2,2.7-0.3,4c-0.5,0.2-1,0.3-1.4,0.4c-2,0.4-2,0.4-2.2,2.3
				c-0.3,1.8-0.6,3.6-0.9,5.4c-1.2,0.2-2.4,0.3-3.6,0.5c0,0.8-0.1,1.3-0.1,1.9c-0.1,2.2-0.1,2.2-2.2,2.6c-1.1,0.2-1.5,0.7-1.6,1.7
				c-0.2,2-0.6,4.1-0.9,6.2c-1.2,0.1-2.4,0.2-3.6,0.4c-0.2,2.6-0.4,5.2-0.6,7.7c-1.3,0.1-2.3,0.3-3.6,0.4c-0.1,1.5-0.3,2.8-0.4,4.2
				c-0.5,0.2-0.9,0.4-1.3,0.4c-1.9,0-2.4,0.7-2.4,2.5c0,1.8-0.3,3.6-0.5,5.5c-1.3,0.2-2.4,0.4-3.7,0.6c-0.2,2.6-0.3,5.2-0.5,7.8
				c-1.3,0.2-2.4,0.3-3.7,0.5c-0.2,2.6-0.4,5.2-0.5,7.8c-1.2,0.2-2.4,0.4-3.5,0.6c-0.2,2.8-0.4,5.4-0.7,8.1
				c-0.6,0.1-1.1,0.2-1.6,0.3c-1.9,0.2-1.9,0.2-2.1,2.1c-0.1,1.7-0.2,3.3-0.3,5c-0.2,1.6-0.4,3.3-0.6,4.9c-1.2,0.1-2.2,0.3-3.4,0.4
				c-0.2,2.9-0.3,5.6-0.5,8.3c-0.6,0.1-1,0.2-1.4,0.3c-1.9,0.3-1.9,0.3-2.1,2.1c-0.2,2-0.4,4-0.5,5.9c-0.1,1.3,0,2.7,0,4.1
				c-1.4,0.2-2.5,0.4-3.7,0.6c-0.3,4.1-0.5,8-0.8,12c-0.6,0.1-1.1,0.2-1.5,0.3c-1.8,0.2-1.9,0.2-2,2c-0.1,1.7-0.2,3.3-0.3,5
				c-0.2,3.1-0.3,6.2-0.5,9.3c-1.3,0.2-2.4,0.4-3.6,0.6c-0.2,5.6-0.3,11-0.5,16.4c-0.9,0.1-1.5,0.2-2.2,0.3
				c-0.9,0.1-1.2,0.6-1.3,1.4c-0.1,1.8-0.4,3.7-0.4,5.5c-0.1,4.2-0.1,8.3-0.2,12.5c0,1.8-0.1,3.6-0.2,5.3c-0.4,0.2-0.5,0.4-0.6,0.4
				c-2.7,0.6-2.8,0.6-2.8,3.3c-0.3,15.3-0.5,30.5-0.7,45.8c0,1.7,0.2,3.5,0.3,5.3c12.7,0,25.1,0,37.9,0c0.1-6.9,0.2-13.8,0.4-20.6
				c1.3-0.2,2.3-0.4,3.6-0.6c0-1,0-1.9,0-2.9c0.1-10.6,0.2-21.1,0.4-31.7c0-0.8,0.2-1.7,0.2-2.5c0.6-0.1,1-0.2,1.4-0.2
				c2.2-0.3,2.2-0.2,2.2-2.5c0.1-4.2,0.1-8.5,0.2-12.7c0-1.8,0.2-3.6,0.2-5.5c1.2-0.2,2.3-0.4,3.5-0.6c0.2-4.2,0.4-8.2,0.6-12.2
				c1.3-0.3,2.7-0.3,3.4-0.9c0.7-0.6,0.6-2,0.9-3c3-0.5,110.9-0.3,112.6,0.1c0.1,0.3,0.2,0.6,0.2,0.9c0.3,2.5,0.3,2.5,2.7,2.8
				c0.4,0,0.7,0.2,1.3,0.4c0,1.1,0,2.1,0,3.1c0,27.4,0,54.7,0,82.1c0,2.1,0.1,4.3,0.2,6.5C556.2,578.8,568.6,578.8,581.4,578.8z
				 M753.3,440.4c0.1-1.5,0.2-2.6,0.3-3.9c1.4-0.1,2.6-0.3,3.9-0.4c0.1-1.4,0.2-2.7,0.3-4c1.2-0.1,2.3-0.2,3.5-0.3
				c0.3-2.6,0.6-5.1,0.9-7.7c0.6-0.1,1.1-0.1,1.7-0.2c0.6-0.1,1.2-0.2,1.9-0.3c0.1-1.4,0.2-2.7,0.3-4c0.5-0.2,0.9-0.4,1.4-0.5
				c1.9-0.4,1.9-0.4,2.2-2.4c0.3-1.9,0.5-3.7,0.8-5.7c0.6-0.1,1.1-0.2,1.6-0.3c0.5-0.1,1-0.2,1.7-0.4c0.3-3.9,0.6-7.7,1-11.6
				c1.1-0.2,2.2-0.3,3.5-0.5c0.2-4.1,0.3-8.2,0.4-12.2c0.6-0.1,1-0.2,1.4-0.3c1.9-0.2,1.9-0.2,2.1-2.1c0.2-2.5,0.5-4.9,0.5-7.4
				c0-13.2,0-26.4,0-39.6c0-1.7-0.2-3.4-0.3-5.2c-1.3-0.3-2.2-0.4-3.4-0.7c-0.3-5.3-0.6-10.4-0.9-15.6c-1.3-0.3-2.3-0.5-3.5-0.7
				c-0.2-2.8-0.4-5.5-0.6-8.2c-1.3-0.2-2.4-0.3-3.6-0.5c-0.2-2.7-0.4-5.3-0.5-7.9c-1.3-0.2-2.4-0.4-3.4-0.6
				c-0.3-2.7-0.6-5.2-0.9-7.7c-1.3-0.1-2.4-0.2-3.5-0.3c-0.1-1.5-0.3-2.8-0.4-4.1c-0.7-0.1-1.2-0.2-1.7-0.2c-2.1-0.1-2-0.1-2.2-2.2
				c-0.1-1.9-0.4-3.7-0.6-5.6c-1.4-0.1-2.6-0.2-3.8-0.3c-0.1-1.5-0.2-2.7-0.4-4c-1.3-0.1-2.5-0.2-3.8-0.3c-0.1-1.3-0.2-2.6-0.4-3.9
				c-1.3-0.2-2.5-0.3-3.8-0.5c-0.1-0.8-0.1-1.3-0.2-1.9c-0.1-0.6-0.2-1.2-0.3-1.9c-1.4-0.1-2.6-0.3-3.8-0.4
				c-0.1-1.3-0.2-2.4-0.3-3.6c-1.4-0.1-2.7-0.3-4-0.4c-0.1-1.4-0.3-2.6-0.4-3.8c-2.6-0.2-5.1-0.4-7.5-0.6c-0.2-1.4-0.3-2.6-0.5-3.8
				c-1.5-0.1-2.8-0.2-4-0.3c-0.1-1.3-0.2-2.4-0.4-3.6c-2.7-0.3-5.3-0.5-7.9-0.8c-0.2-1.3-0.3-2.4-0.5-3.5c-2.7-0.3-5.3-0.5-7.8-0.7
				c-0.2-1.3-0.3-2.3-0.5-3.7c-2.8,0-5.5,0-8.2,0c-0.2-1.4-0.4-2.4-0.7-3.8c-5.3-0.3-10.6-0.6-15.9-0.9c-0.2-1.2-0.4-2.2-0.6-3.2
				c-4.3-0.8-63.4-0.9-66.8-0.1c0,1.2,0,2.5,0,3.7c0,112.1,0,224.1,0,336.2c0,0.8,0,1.6,0,2.4c0.1,1.7,0.2,3.5,0.3,5.1
				c3.2,0.6,39.7,0.6,41.8-0.1c0-2.1,0-4.2,0-6.4c0-27.7,0-55.3,0-83c0-2,0.1-4.1,0.2-6.4c9.8-0.1,19.2-0.3,28.7-0.4
				c0.2-1.4,0.4-2.5,0.6-3.6c4.2-0.2,8.2-0.5,12.2-0.7c0.1-0.6,0.3-1.2,0.4-1.7c0.3-1.7,0.3-1.7,2.1-1.9c1.6-0.1,3.2-0.1,4.8-0.3
				c1.6-0.2,3.3-0.4,4.8-0.6c0.2-1.3,0.4-2.4,0.6-3.3c2.8-0.3,5.3-0.5,7.9-0.8c0.2-1.3,0.4-2.4,0.5-3.6c1.4-0.1,2.7-0.2,4.1-0.3
				c0.1-1.3,0.2-2.4,0.4-3.6c2.7-0.3,5.2-0.6,7.7-0.9c0.2-1.3,0.3-2.4,0.4-3.5c1.4-0.1,2.7-0.3,4-0.4c0.1-1.4,0.3-2.6,0.4-3.8
				c1.5-0.1,2.7-0.3,4-0.4c0.1-1.4,0.2-2.6,0.3-3.8c1.4-0.1,2.6-0.2,3.9-0.3c0.1-1.4,0.3-2.5,0.4-3.7c1.4-0.2,2.5-0.4,3.7-0.5
				c0.1-1.4,0.2-2.6,0.3-3.8C750.8,440.6,751.9,440.5,753.3,440.4z M846.1,537c-0.2-0.5-0.2-0.6-0.3-0.6c0-0.1-0.1-0.2-0.1-0.2
				c0-0.2,0-0.3,0-0.5c0-0.1,0-0.2,0-0.2c0-0.2,0-0.3,0-0.5c0-100.5,0-201.1,0-301.6c0-0.2,0-0.5,0-0.7c0-0.1,0-0.2,0-0.2
				c0-0.1,0-0.2,0-0.2c0-0.2,0-0.3,0-0.5c0-0.1,0-0.2,0-0.2c0-0.1,0-0.2-0.1-0.2c0-0.1-0.1-0.2-0.1-0.2c0-0.1-0.1-0.1-0.3-0.3
				c-0.3,0-0.8-0.1-1.2-0.1c-11.5,0-23,0-34.6,0c-1.8,0-3.6,0.3-5.5,0.6c0,1.2,0,2.1,0,3.1c0,112.6,0,225.2,0,337.8
				c0,1.6,0.1,3.2,0.1,4.8c0.1,1.6,0.2,1.7,1.9,1.8c1.4,0.1,2.7,0.2,4.1,0.2c54.7,0,109.4,0,164.1,0c1.8,0,3.6-0.1,5.6-0.2
				c0.1-1,0.1-1.7,0.1-2.5c0-10.2,0.1-20.3,0.1-30.5c0-2.3-0.3-4.6-0.5-6.9c-0.1-1.1-0.6-1.5-1.7-1.6c-1.8,0-3.5-0.2-5.3-0.2
				c-41,0-81.9,0-122.9,0C848.4,537.1,847.2,537,846.1,537z"/>
			<path class="st0" d="M497.5,348.2c0.1-1.3,0.2-2.5,0.3-3.8c1.3-0.1,2.4-0.2,3.8-0.4c0.1-1.3,0.2-2.5,0.4-4
				c1.2-0.1,2.3-0.2,3.7-0.3c0.1-1.3,0.2-2.5,0.3-4c1.3-0.1,2.5-0.2,3.9-0.3c0.1-1.2,0.2-2.4,0.3-3.9c1.2-0.1,2.5-0.2,3.9-0.4
				c0.1-1.2,0.2-2.3,0.3-3.7c1.2-0.1,2.4-0.3,3.8-0.4c0.2-1.3,0.3-2.5,0.5-3.9c1.3-0.1,2.4-0.2,3.7-0.3c0.1-1.3,0.3-2.6,0.4-3.9
				c1.4-0.1,2.6-0.2,4-0.3c0.1-1.3,0.2-2.4,0.4-3.6c1.4-0.2,2.6-0.4,3.9-0.6c0.1-1.3,0.2-2.4,0.2-3.5c1.9-0.3,3.7-0.7,5.6-1
				c2-0.3,2-0.2,2.3-2.2c0.1-0.4,0.2-0.8,0.3-1.3c1.1,0,2.2,0,3.6,0c0.1,1,0.2,2,0.2,3c0,23.5,0,47,0,70.5c0,18.9,0,37.7,0,56.6
				c0,1-0.1,2-0.2,3.2c-2.1,0.2-4.1,0.5-6.1,0.5c-30.8,0-61.6,0-92.4,0c-1.8,0-3.6-0.1-5.6-0.2c0-1.3,0-2.4,0-3.7
				c1.1-0.1,2.2-0.3,3.5-0.5c0.2-2.7,0.3-5.3,0.5-8.1c1.2-0.2,2.4-0.3,3.7-0.5c0.2-2.6,0.3-5.1,0.5-7.8c1.2-0.2,2.3-0.3,3.7-0.5
				c0.2-2.6,0.4-5.2,0.6-8c1.1-0.2,2.2-0.3,3.4-0.5c0.2-2.6,0.4-5.1,0.6-7.7c1.3-0.1,2.4-0.2,3.7-0.4c0.2-2.6,0.4-5.1,0.6-7.7
				c1.3-0.2,2.5-0.3,3.8-0.5c0.1-1.4,0.2-2.6,0.3-4.1c1.1-0.1,2.2-0.3,3.5-0.5c0.3-2.5,0.6-5,1-7.6c1.1-0.2,2.3-0.4,3.5-0.6
				c0.1-1.3,0.2-2.6,0.3-4c1.2-0.2,2.4-0.3,3.8-0.5c0.2-2.5,0.5-5,0.7-7.7c1.3-0.1,2.4-0.3,3.7-0.4c0.1-1.3,0.2-2.6,0.3-4
				c1.2-0.1,2.4-0.2,3.8-0.3c0.1-1.3,0.3-2.5,0.4-3.9c1.2-0.2,2.4-0.3,3.7-0.5c0.1-0.8,0.2-1.6,0.1-2.4c0-1.2,0.4-1.9,1.6-1.9
				c1.7,0,2.1-0.8,2.3-2.4c0.2-1.6,0.6-3.2,1-5.1C494.9,348.6,496.1,348.4,497.5,348.2z"/>
			<path class="st0" d="M736.2,393.8c-1.4,0.2-2.5,0.3-3.7,0.5c-0.2,2.8-0.3,5.3-0.5,8c-1.3,0.1-2.5,0.2-3.7,0.4
				c-0.1,1.4-0.2,2.6-0.4,4c-1.2,0.1-2.4,0.3-3.6,0.4c-0.1,0.4-0.2,0.7-0.2,1c-0.1,0.9,0.1,2-0.3,2.5c-0.4,0.5-1.5,0.6-2.4,0.8
				c-0.9,0.2-1.1,0.9-1.1,1.6c-0.1,2.2-0.8,2.4-2.4,2.5c-1,0.1-1.6,0.4-1.8,1.5c-0.4,2.4-0.5,2.4-3,2.6c-0.3,0-0.6,0.2-0.8,0.2
				c-0.1,0.2-0.3,0.4-0.3,0.5c-0.4,3.1-0.4,3.1-3.7,3.4c-0.2,0-0.3,0.1-0.6,0.2c-0.1,0.5-0.2,1.1-0.2,1.7c-0.1,0.5-0.1,1.1-0.2,1.8
				c-1.4,0.1-2.7,0.3-4.1,0.4c-0.2,1.3-0.3,2.4-0.5,3.7c-2.6,0.2-5.1,0.3-7.8,0.5c-0.2,1.3-0.3,2.4-0.5,3.8
				c-1.6,0.1-3.2,0.2-4.8,0.3c-1.8,0.1-3.5,0.2-5.3,0.3c-1.2,0-1.8,0.5-1.8,1.7c0,0.6-0.2,1.2-0.4,2c-6.9,0.2-13.6,0.4-20.5,0.6
				c-0.2,1.2-0.4,2.2-0.6,3.4c-1.2,0-2.2,0-3.3,0c-0.6-2.3-0.9-168.1-0.2-171.5c0.6-0.1,1.3-0.2,2-0.2c6.6,0.1,13.1,0.2,19.7,0.3
				c2.5,0,2.5,0.1,2.8,2.6c0,0.3,0.1,0.6,0.3,1.2c2.7,0.1,5.5,0.3,8.2,0.4c0.3,1.2,0.3,2.6,1,3.2c0.7,0.6,2.1,0.5,3.2,0.6
				c1.3,0.2,2.7,0.3,4.2,0.4c0.2,1.2,0.3,2.3,0.5,3.5c2.6,0.2,5.1,0.5,7.8,0.7c0.1,1.3,0.2,2.4,0.4,3.7c1.3,0.1,2.6,0.2,3.9,0.3
				c0.2,1.3,0.3,2.5,0.5,3.9c1.2,0.1,2.3,0.2,3.6,0.3c0.2,1.2,0.3,2.5,0.5,3.8c1.3,0.1,2.4,0.3,3.8,0.4c0.1,1.2,0.2,2.4,0.3,3.7
				c1.2,0.2,2.5,0.3,3.8,0.5c0.1,1.3,0.3,2.6,0.4,3.9c1.2,0.1,2.3,0.2,3.5,0.3c0.3,2.5,0.6,5,1,7.6c1.1,0.2,2.2,0.3,3.3,0.5
				c0.3,1.9,0.5,3.8,0.8,5.7c0.3,2,0.3,2,2.2,2.3c0.5,0.1,0.9,0.3,1.4,0.5c0.1,2.7,0.3,5.3,0.4,8c1.2,0.2,2.2,0.4,3.6,0.7
				c0.8,16.5,0.7,33,0.1,49.6c-1.3,0.2-2.3,0.4-3.6,0.7C736.6,385.9,736.4,389.8,736.2,393.8z"/>
		</g>
	</g>
	<g>
		<g>
			<path class="st1" d="M648.7,41.8c15.2,0,30.4,0,45.6,0c1,0.2,2,0.5,3,0.5c12.2,0,24.3,0,36.5,0c1.7,0,3.4,0.1,5,0.1
				c0.9,0,1.5,0.4,1.6,1.4c0.1,0.7,0.3,1.4,0.4,2.2c5.2,0,10.2,0,15.3,0c5,0,9.9,0.1,14.9,0.1c5,0,10.1,0,15.1,0c5,0,9.9,0,14.9,0.1
				c5,0.1,10-0.2,15,0.2c0.2,1.4,0.3,2.4,0.5,3.6c0.8,0.1,1.5,0.2,2.1,0.2c4.2,0.1,8.5,0.1,12.7,0.1c9.7,0.1,19.4,0.2,29,0.2
				c2,0,2.1,0,2.5,2c0.2,1.2,0.9,1.5,2,1.5c4.5,0.1,8.9,0.3,13.4,0.4c7.9,0.2,15.8,0.2,23.8,0.4c0.6,0,1.2,0.2,1.8,0.2
				c0.2,1.2,0.4,2.2,0.7,3.2c9.8,0.6,19.4,0,29,0.8c0.2,0.4,0.3,0.6,0.4,0.8c0.5,2.6,0.5,2.6,3.1,2.6c7.9,0.1,15.8,0.3,23.7,0.4
				c0.8,0,1.5,0.1,2.1,0.2c0.2,0.4,0.3,0.4,0.3,0.5c0.1,0.2,0.1,0.5,0.2,0.7c0.3,2.1,0.3,2.1,2.3,2.2c1.4,0.1,2.7,0.3,4.1,0.3
				c6.8,0.2,13.6,0.3,20.4,0.4c2.1,0,2.1,0.1,2.4,2c0.1,0.5,0.2,0.9,0.4,1.6c6.9,0.2,13.7,0.4,20.5,0.7c0.3,1.3,0.5,2.2,0.7,3.3
				c8.1,0.8,16.2,0.1,24.2,1.2c0.2,1.2,0.4,2.2,0.6,3.3c6.9,0.1,13.7,0.3,20.5,0.4c0.2,1.4,0.4,2.4,0.6,3.8c5.5,0.1,11,0.3,16.3,0.4
				c0.5,1.2,0.7,2.7,1.5,3.3c0.8,0.6,2.3,0.5,3.5,0.7c0.2,0,0.3,0,0.5,0c3.1,0.3,3.1,0.3,3.7,3.2c0,0.1,0.2,0.3,0.3,0.4
				c3.2,0.7,3.2,0.7,3.6,3.9c0,0.1,0.2,0.3,0.3,0.5c1,0.1,2.2,0.3,3.6,0.5c0,2.1,0,4,0,5.9c-0.1,51.6-0.2,103.2-0.4,154.8
				c0,0.8-0.1,1.7-0.2,2.5c-1.3,0.2-2.3,0.4-3.3,0.6c-0.1,0.8-0.1,1.6-0.2,2.3c-0.1,9.8-0.1,19.7-0.2,29.5c0,4-0.1,8-0.1,12
				c0,1.7-0.1,1.8-1.9,2.1c-0.5,0.1-1,0.3-1.7,0.4c-0.8,11-0.3,21.9-0.8,32.8c-1.3,0.2-2.3,0.4-3.3,0.6c-0.6,8.2,0,16.4-0.9,24.5
				c-0.5,0.2-0.8,0.3-1.1,0.3c-2.3,0.4-2.3,0.4-2.4,2.6c-0.1,3.1-0.1,6.2-0.2,9.4c-0.1,3.2-0.2,6.4-0.3,9.6c0,1,0.1,2.3-0.5,3
				c-0.6,0.7-1.9,0.8-3.2,1.2c-0.2,6.6-0.4,13.2-0.5,19.9c-1.3,0.2-2.3,0.4-3.6,0.6c-0.2,5.5-0.5,10.9-0.7,16.3
				c-1.3,0.2-2.3,0.4-3.5,0.7c-0.2,5.5-0.5,10.8-0.7,16.1c-1.4,0.3-2.4,0.5-3.6,0.7c0,0.9-0.1,1.6-0.1,2.3
				c-0.1,3.4-0.2,6.9-0.4,10.3c-0.1,1,0,2.3-0.5,3c-0.6,0.7-1.9,0.8-3.2,1.2c-0.1,4-0.3,8.1-0.4,12.3c-1.2,0.2-2.3,0.4-3.5,0.6
				c-0.3,4.1-0.5,8-0.7,12c-0.5,0.1-0.9,0.2-1.3,0.3c-2.1,0.3-2.1,0.2-2.2,2.4c-0.1,2.8-0.2,5.6-0.4,8.4c-0.1,1.6-0.1,3.3-0.7,4.7
				c-0.4,0.8-2,0.9-3.4,1.4c0,0.7,0,1.5,0,2.3c-0.1,2.2-0.2,4.5-0.4,6.7c-0.3,2.5-0.4,2.4-2.9,3c-0.3,0.1-0.5,0.3-1.1,0.6
				c0,2.6,0,5.3,0,8.1c-0.9,0.2-1.5,0.3-2.1,0.4c-1.1,0.1-1.5,0.7-1.5,1.7c-0.1,1.8-0.3,3.7-0.4,5.5c-0.1,1.6-0.2,3.2-0.3,4.8
				c-1.2,0.2-2.4,0.4-3.6,0.7c-0.1,2.3-0.1,4.3-0.3,6.4c-0.1,1.6-0.1,3.3-0.8,4.7c-0.4,0.8-2,0.9-3.2,1.3c-0.1,2.6-0.3,5.3-0.4,8
				c-1.3,0.2-2.4,0.3-3.7,0.5c-0.2,4-0.5,7.8-0.7,11.6c-0.5,0.2-0.8,0.3-1,0.3c-2.7,0.3-2.7,0.3-2.8,2.9c-0.1,1.9-0.2,3.8-0.3,5.7
				c-1.3,0.1-2.4,0.2-3.6,0.4c-0.2,2.8-0.3,5.5-0.5,8.2c-1.3,0.2-2.4,0.3-3.7,0.5c-0.2,2.7-0.4,5.3-0.5,7.9
				c-0.5,0.1-0.9,0.2-1.3,0.3c-2,0.2-2,0.2-2.2,2.3c-0.2,2-0.5,4.1-0.8,6.1c-1.1,0.2-2.1,0.3-3.2,0.5c-0.3,2.6-0.6,5.1-0.9,7.8
				c-0.6,0.1-1.2,0.3-1.9,0.4c-1.2,0.1-1.7,0.6-1.7,1.8c0,1.5-0.3,3-0.3,4.5c0,1.3-0.5,2-1.8,1.9c-1.5,0-1.8,0.8-1.9,2.1
				c-0.2,2-0.5,3.9-0.8,5.9c-0.4,0.1-0.8,0.2-1.2,0.2c-2,0.2-2,0.2-2.2,2.2c-0.3,1.9-0.5,3.8-0.8,5.7c-1.1,0.2-2.3,0.3-3.4,0.5
				c-0.3,2.8-0.5,5.4-0.8,8c-1.3,0.2-2.4,0.3-3.5,0.4c-0.2,2.7-0.4,5.2-0.6,7.8c-1.4,0.2-2.5,0.3-3.7,0.4c-0.2,2.7-0.3,5.1-0.5,7.7
				c-1.3,0.2-2.4,0.4-3.7,0.6c-0.2,1.5-0.3,2.9-0.4,4.2c-1.3,0.2-2.4,0.3-3.5,0.5c-0.2,2.7-0.4,5.1-0.6,7.7
				c-1.3,0.2-2.5,0.3-3.8,0.4c-0.2,2.6-0.4,5.1-0.6,7.6c-1.3,0.2-2.5,0.4-3.7,0.5c-0.1,1.5-0.2,2.8-0.3,4.2
				c-1.3,0.2-2.4,0.4-3.5,0.6c-0.3,2.7-0.6,5.1-0.9,7.6c-1.3,0.1-2.4,0.3-3.6,0.4c-0.1,1.5-0.2,2.7-0.3,4c-1.4,0.2-2.5,0.4-3.8,0.5
				c-0.2,2.6-0.5,5.1-0.7,7.7c-1.4,0.1-2.5,0.2-3.8,0.3c-0.1,1.5-0.2,2.8-0.3,4.1c-1.4,0.2-2.4,0.3-3.5,0.4c-0.3,2.7-0.6,5.2-1,7.7
				c-1.3,0.1-2.4,0.2-3.5,0.3c-0.1,1.4-0.3,2.7-0.4,4c-1.3,0.1-2.5,0.3-3.6,0.4c-0.4,2.6-0.7,5.1-1,7.6c-1.3,0.2-2.4,0.3-3.5,0.5
				c-0.1,1.5-0.2,2.7-0.3,4.1c-1.3,0.1-2.5,0.2-3.7,0.3c-0.2,1.4-0.3,2.8-0.5,4.1c-1.3,0.1-2.4,0.2-3.5,0.3
				c-0.4,2.6-0.7,5.1-1.1,7.6c-1.3,0.2-2.4,0.3-3.5,0.4c-0.1,1.5-0.3,2.7-0.4,4c-1.3,0.1-2.5,0.2-3.8,0.3c-0.1,1.4-0.3,2.7-0.4,4
				c-1.3,0.1-2.4,0.2-3.6,0.3c-0.2,1.4-0.3,2.7-0.5,4c-1.3,0.2-2.4,0.3-3.6,0.4c-0.1,0.6-0.2,1-0.2,1.5c-0.1,2.3-0.1,2.4-2.3,2.7
				c-1.1,0.2-1.4,0.7-1.6,1.7c-0.3,1.9-0.6,3.9-1,5.9c-1.2,0.1-2.4,0.3-3.7,0.4c-0.1,1.3-0.2,2.5-0.4,3.8c-1.3,0.2-2.6,0.3-3.8,0.5
				c-0.1,1.4-0.2,2.6-0.4,3.8c-1.3,0.1-2.5,0.2-3.7,0.4c-0.1,1.4-0.2,2.7-0.4,3.9c-1.4,0.1-2.6,0.2-3.8,0.3
				c-0.1,1.4-0.2,2.6-0.4,3.9c-0.7,0.1-1.2,0.2-1.7,0.2c-0.6,0.1-1.2,0.1-2,0.2c-0.1,0.8-0.1,1.5-0.2,2.2c-0.1,1.8-0.1,1.8-1.9,2.1
				c-0.5,0.1-1.1,0.2-1.7,0.3c-0.1,0.5-0.2,0.8-0.2,1.2c-0.2,2.3-0.2,2.3-2.6,2.8c-1,0.2-1.3,0.7-1.5,1.6c-0.3,1.9-0.7,3.9-1.1,5.8
				c-1.2,0.2-2.4,0.3-3.6,0.5c-0.1,0.7-0.1,1.2-0.2,1.8c-0.1,0.6-0.1,1.2-0.1,2c-0.7,0.1-1.4,0.2-2,0.2c-2,0.2-2,0.2-2.1,2.1
				c-0.1,0.7-0.1,1.4-0.2,2c-1.3,0.1-2.4,0.2-3.6,0.3c-0.2,1.4-0.4,2.7-0.6,4c-1.4,0.1-2.6,0.2-3.7,0.3c-0.1,1.4-0.2,2.6-0.3,3.8
				c-1.4,0.2-2.7,0.3-3.9,0.5c-0.1,1.3-0.2,2.4-0.3,3.6c-1.3,0.1-2.6,0.2-3.9,0.4c-0.2,1.4-0.3,2.7-0.5,4c-1.3,0.1-2.5,0.2-3.7,0.2
				c-0.2,1.4-0.3,2.5-0.5,3.8c-1.3,0.2-2.5,0.3-3.8,0.5c-0.2,1.3-0.3,2.4-0.4,3.4c-2.6,0.5-4.9,0.9-7.2,1.3
				c-0.4,1.3-0.4,2.7-1.1,3.4c-0.7,0.7-2.2,0.7-3.4,1c-0.2,1.1-0.3,2.2-0.5,3.3c-1.4,0.2-2.6,0.3-3.9,0.5c-0.1,0.8-0.1,1.4-0.2,1.9
				c-0.1,0.6-0.2,1.2-0.3,1.8c-1.4,0.1-2.6,0.2-3.9,0.3c-0.1,1.4-0.2,2.6-0.3,3.8c-1.4,0.1-2.5,0.3-3.8,0.4
				c-0.2,1.2-0.3,2.4-0.5,3.6c-1.3,0.1-2.5,0.3-3.8,0.4c-0.1,1.4-0.2,2.7-0.3,3.9c-1.5,0.1-2.8,0.2-4,0.3c-0.1,1.4-0.2,2.5-0.3,3.7
				c-1.8,0.2-3.5,0.5-5.1,0.7c-2.2,0.2-2.3,0.2-2.5,2.4c-0.1,1.2-0.7,1.7-1.8,1.8c-0.8,0-1.5,0.1-2.4,0.2c-0.1,0.7-0.1,1.3-0.2,1.8
				c-0.1,0.6-0.2,1.2-0.3,1.8c-1.4,0.1-2.7,0.2-3.9,0.3c-0.1,1.4-0.2,2.6-0.3,3.8c-1.4,0.1-2.6,0.2-4,0.3c-0.1,1.3-0.2,2.5-0.4,3.7
				c-1.8,0.2-3.5,0.5-5.2,0.7c-2.2,0.2-2.3,0.2-2.5,2.4c-0.1,1.1-0.5,1.6-1.6,1.6c-0.8,0-1.7,0.1-2.6,0.2c-0.1,1.4-0.3,2.5-0.4,3.7
				c-1.4,0.1-2.6,0.2-3.9,0.3c-0.2,1.3-0.3,2.6-0.5,3.8c-2,0.3-3.9,0.6-5.8,0.8c-0.8,0.1-1.4,0.3-1.6,1.2c-0.2,0.8-0.3,1.9-0.8,2.4
				c-0.6,0.4-1.7,0.2-2.5,0.3c-0.4,0-0.8,0.1-1.3,0.2c-0.1,1.2-0.3,2.4-0.4,3.6c-0.8,0.1-1.5,0.1-2.2,0.2c-1.8,0.1-1.9,0.2-2,1.9
				c-0.1,0.6-0.1,1.2-0.2,1.9c-2.6,0.3-5.1,0.5-7.6,0.7c-0.1,0.8-0.1,1.3-0.2,1.9c-0.1,0.6-0.2,1.2-0.3,1.9c-1.4,0.1-2.7,0.2-4,0.2
				c-0.2,1.3-0.3,2.4-0.4,3.6c-2.6,0.3-5.1,0.6-7.6,0.9c-0.1,1.2-0.3,2.4-0.5,3.7c-1,0-1.9,0-2.8,0c-1.1,0-1.6,0.5-1.7,1.5
				c-0.1,0.8-0.2,1.5-0.3,2.3c-2.6,0.2-5,0.4-7.5,0.6c-0.2,1.2-0.3,2.4-0.5,3.7c-2.6,0.2-5.1,0.4-7.7,0.6c-0.2,1.2-0.3,2.3-0.5,3.5
				c-2.6,0.3-5.1,0.6-7.6,1c-0.2,1.2-0.4,2.3-0.6,3.4c-1.5,0.1-2.8,0.2-4.2,0.4c-0.2,1.3-0.4,2.5-0.6,3.8c-2.6,0.1-5.2,0.3-7.8,0.4
				c-0.2,1.3-0.3,2.5-0.4,3.5c-4.9,1-17.6,0.7-20.1-0.4c-0.1-1-0.2-2-0.3-3.2c-2.6-0.1-5.2-0.3-7.8-0.4c-0.2-1.3-0.4-2.5-0.7-3.8
				c-1.5-0.1-2.8-0.2-4.2-0.3c-0.1-0.5-0.3-0.9-0.3-1.3c-0.3-2.1-0.3-2.1-2.4-2.3c-1.9-0.2-3.7-0.5-5.6-0.8
				c-0.2-1.3-0.3-2.3-0.4-3.4c-2.7-0.2-5.2-0.4-7.7-0.6c-0.2-1.4-0.3-2.6-0.5-3.7c-1.5-0.1-2.8-0.2-4.1-0.3
				c-0.3-1.2-0.5-2.3-0.8-3.4c-2.5-0.3-4.9-0.6-7.5-1c-0.2-1.2-0.3-2.4-0.4-3.5c-2.7-0.3-5.2-0.6-7.7-0.9c-0.1-1.3-0.3-2.4-0.4-3.6
				c-1.5-0.1-2.8-0.2-4.1-0.3c-0.1-1.3-0.2-2.4-0.3-3.7c-2.5-0.3-5-0.6-7.6-0.9c-0.1-0.7-0.1-1.3-0.2-1.8c-0.2-1.7-0.2-1.8-2-1.9
				c-0.8-0.1-1.5-0.1-2.4-0.2c-0.1-1.4-0.2-2.5-0.4-3.7c-1.5-0.1-2.7-0.2-4-0.3c-0.2-1.4-0.3-2.5-0.5-3.8c-2.6-0.2-5-0.4-7.5-0.6
				c-0.2-1.4-0.3-2.6-0.5-3.8c-1.5-0.1-2.7-0.2-4-0.3c-0.1-1.3-0.2-2.4-0.3-3.6c-0.7-0.1-1.2-0.2-1.8-0.2c-2.3-0.1-2.4-0.1-2.8-2.5
				c-0.2-1.1-0.7-1.4-1.8-1.5c-1.9-0.1-3.8-0.4-5.7-0.6c-0.1-1.3-0.3-2.4-0.4-3.7c-1.4-0.1-2.7-0.3-4-0.4c-0.1-1.4-0.2-2.6-0.3-3.8
				c-1.4-0.1-2.7-0.3-3.9-0.4c-0.1-1.3-0.3-2.5-0.4-3.6c-0.7-0.1-1.2-0.1-1.7-0.2c-2.4-0.1-2.4-0.1-2.6-2.4c0-0.5-0.2-0.9-0.3-1.4
				c-2.5-0.3-4.9-0.6-7.4-0.9c-0.1-1.4-0.2-2.5-0.3-3.8c-1.4-0.1-2.6-0.2-4-0.3c-0.1-1.4-0.2-2.6-0.4-3.9c-1.4-0.1-2.6-0.2-3.8-0.3
				c-0.2-1.3-0.3-2.5-0.4-3.7c-1.4-0.2-2.6-0.3-3.9-0.4c-0.1-1.4-0.2-2.5-0.3-3.7c-1.4-0.1-2.7-0.2-3.9-0.4
				c-0.1-1.4-0.2-2.6-0.4-3.9c-1.4-0.1-2.7-0.2-4-0.3c-0.2-1.3-0.3-2.3-0.4-3.2c-1.3-0.4-2.7-0.4-3.5-1.1c-0.7-0.7-0.7-2.2-1-3.3
				c-2.3-0.5-4.6-1-6.9-1.4c-0.2-1.2-0.4-2.3-0.7-3.4c-1.4-0.2-2.6-0.3-3.9-0.5c-0.2-1.4-0.3-2.6-0.4-3.8c-1.3-0.1-2.5-0.2-3.8-0.3
				c-0.1-1.4-0.3-2.6-0.4-3.9c-1.4-0.2-2.7-0.3-3.9-0.4c-0.1-1.3-0.2-2.4-0.3-3.6c-1.4-0.2-2.6-0.3-3.9-0.5
				c-0.1-1.4-0.3-2.6-0.4-3.8c-1.3-0.1-2.4-0.2-3.6-0.2c-0.2-1.4-0.4-2.7-0.6-4c-1.4-0.1-2.5-0.2-3.7-0.3c-0.1-0.7-0.1-1.2-0.1-1.7
				c-0.1-2.3-0.1-2.3-2.3-2.4c-0.6,0-1.2-0.2-1.7-0.2c-0.3-1.9-0.8-3.6-0.9-5.4c-0.1-1.5-0.7-2.2-2.2-2.2c-1.3,0-2.1-0.6-2.1-2
				c0.1-1.5-0.7-2.1-2.2-2.1c-1.2,0-1.9-0.7-1.9-2c0-0.7-0.2-1.4-0.2-2c-0.6-0.1-1-0.2-1.4-0.2c-2.2-0.2-2.2-0.2-2.4-2.4
				c0-0.6-0.2-1.2-0.3-1.9c-1.3-0.1-2.4-0.2-3.6-0.3c-0.1-1.5-0.3-2.7-0.4-4c-1.4-0.1-2.6-0.2-3.8-0.3c-0.1-1.4-0.2-2.6-0.3-4
				c-1.4-0.1-2.6-0.3-3.9-0.4c-0.1-1.4-0.2-2.5-0.3-3.8c-1.3-0.2-2.4-0.4-3.7-0.5c-0.1-1.3-0.2-2.5-0.3-3.7c-0.8-0.1-1.4-0.1-2-0.2
				c-0.6-0.1-1.2-0.2-1.7-0.3c-0.3-1.9-0.7-3.6-1-5.3c-0.3-1.9-0.3-1.9-2.3-2.3c-1.2-0.2-1.6-0.8-1.6-1.9c0-0.8-0.1-1.5-0.1-2.3
				c-1.4-0.2-2.6-0.3-3.8-0.4c-0.2-1.5-0.3-2.7-0.4-3.9c-1.4-0.1-2.5-0.2-3.7-0.3c-0.1-1.5-0.2-2.8-0.3-4c-1.4-0.1-2.6-0.2-3.7-0.3
				c-0.3-2.2-0.7-4.2-1-6.3c-0.1-0.8-0.4-1.3-1.3-1.5c-2.4-0.5-2.4-0.5-2.5-2.9c0-0.5-0.1-0.9-0.2-1.4c-1.3-0.1-2.4-0.2-3.6-0.3
				c-0.1-1.5-0.3-2.7-0.4-4c-1.3-0.1-2.5-0.2-3.6-0.3c-0.3-2-0.6-3.9-0.9-5.8c-0.3-1.8-0.2-1.8-2.2-2c-1.2-0.1-1.7-0.6-1.7-1.8
				c0-0.8-0.1-1.7-0.1-2.5c-1.4-0.1-2.6-0.3-3.8-0.4c-0.1-1.5-0.2-2.7-0.3-4c-1.3-0.1-2.4-0.3-3.5-0.4c-0.4-2.6-0.7-5.1-1-7.6
				c-1.3-0.1-2.3-0.3-3.5-0.4c-0.1-1.5-0.2-2.8-0.3-4.1c-1.4-0.1-2.6-0.2-3.8-0.3c-0.2-2.6-0.4-5.1-0.6-7.6
				c-1.3-0.2-2.5-0.4-3.8-0.6c-0.1-1.5-0.2-2.7-0.3-4c-1.3-0.1-2.5-0.3-3.5-0.4c-0.3-2.8-0.6-5.3-0.9-7.8c-1.3-0.2-2.4-0.3-3.5-0.5
				c-0.1-1.4-0.2-2.6-0.3-4c-1.3-0.2-2.4-0.3-3.8-0.5c-0.2-2.6-0.4-5.1-0.6-7.7c-1.3-0.1-2.4-0.2-3.7-0.4c-0.2-2.6-0.4-5.1-0.6-7.7
				c-1.3-0.2-2.4-0.3-3.6-0.5c-0.1-1.5-0.3-2.8-0.4-4.2c-1.4-0.2-2.5-0.4-3.7-0.6c-0.2-2.7-0.4-5.2-0.5-7.7
				c-1.4-0.1-2.6-0.3-3.8-0.4c-0.2-2.7-0.3-5.3-0.4-7.8c-1.4-0.2-2.5-0.3-3.8-0.4c-0.2-2.7-0.4-5.3-0.6-7.9
				c-1.3-0.2-2.4-0.3-3.5-0.5c-0.3-2.7-0.6-5.3-0.9-7.8c-1.3-0.1-2.3-0.3-3.3-0.4c-0.3-2-0.6-3.9-0.8-5.8c-0.1-1.4-0.4-2.3-2.1-2.2
				c-1.2,0-1.6-0.7-1.6-1.8c0-1.5-0.3-3-0.3-4.5c0-1.2-0.4-1.8-1.7-1.9c-0.7-0.1-1.3-0.3-1.9-0.4c-0.3-2.7-0.6-5.2-0.9-7.8
				c-1.2-0.2-2.2-0.4-3.4-0.5c-0.2-2.8-0.3-5.5-0.5-8.2c-1.3-0.2-2.5-0.3-3.7-0.4c-0.2-2.7-0.3-5.2-0.5-7.8
				c-1.3-0.2-2.4-0.4-3.7-0.6c-0.2-2.8-0.3-5.4-0.5-8.1c-1.3-0.2-2.4-0.3-3.5-0.4c-0.3-3.2-0.5-6.1-0.8-9.1
				c-0.3-2.7-0.3-2.7-3.1-3.1c-0.1,0-0.3-0.2-0.5-0.3c-0.2-2.6-0.3-5.2-0.5-7.9c-1.4-0.2-2.5-0.3-3.7-0.5c-0.1-2.7-0.3-5.4-0.4-8.1
				c-1.2-0.3-2.3-0.6-3.5-0.9c-0.3-3.9-0.6-7.7-0.9-11.5c-1.3-0.2-2.4-0.3-3.4-0.5c-0.1-0.6-0.1-1-0.2-1.4c-0.2-2.7-0.5-5.4-0.6-8.1
				c0-2-0.4-2.7-2.4-2.6c-0.4,0-0.7-0.2-1-0.3c-0.1-0.2-0.2-0.3-0.2-0.3c-0.1-2.2-0.1-4.5-0.3-6.7c-0.1-1.5-0.2-3.1-0.8-4.4
				c-0.3-0.6-1.8-0.7-2.8-1c-0.1,0-0.2-0.2-0.3-0.3c-0.2-3-0.4-6.1-0.7-9.1c-0.3-2.8-0.4-2.8-3.1-3.3c-0.1,0-0.2-0.2-0.5-0.4
				c-0.4-3.8,0-7.8-0.8-11.7c-1.2-0.2-2.2-0.3-3.2-0.5c-0.3-4.1-0.5-8.1-0.7-12.1c-1.3-0.3-2.4-0.5-3.5-0.7
				c-0.1-4.2-0.3-8.2-0.4-12.3c-1.2-0.3-2.3-0.5-3.6-0.7c-0.3-5.4-0.5-10.7-0.8-16c-1.3-0.2-2.3-0.4-3.5-0.6
				c-0.2-5.4-0.4-10.7-0.7-16.1c-1.2-0.2-2.3-0.4-3.4-0.7c-0.1-0.8-0.1-1.4-0.2-2c-0.2-5-0.4-10.1-0.7-15.1c-0.1-2.7-0.2-2.7-3-3.3
				c-0.1,0-0.3-0.2-0.5-0.4c-0.5-5.3,0-10.8-0.7-16.1c-0.4-0.2-0.4-0.3-0.5-0.3c-0.2-0.1-0.5-0.1-0.7-0.1c-2.1-0.3-2.1-0.3-2.2-2.3
				c-0.1-1.4-0.2-2.9-0.3-4.3c-0.1-5-0.2-10.1-0.4-15.1c-0.1-3.1-0.1-3.1-3.1-3.8c-0.1,0-0.2-0.2-0.6-0.6c-0.2-7.8-0.4-16-0.6-24.1
				c-0.8-0.1-1.2-0.2-1.7-0.3c-1.8-0.3-1.8-0.3-1.8-2.1c-0.1-4.3-0.2-8.6-0.3-12.9c-0.1-5.4-0.2-10.9-0.4-16.3
				c0-0.6-0.2-1.2-0.2-1.9c-1.2-0.2-2.3-0.4-3.3-0.6c-0.1-0.7-0.1-1.1-0.1-1.6c-0.1-13.3-0.2-26.6-0.4-39.8c0-1.8-0.1-3.5-0.3-5.3
				c-0.3-2.9-0.3-2.9-2.9-3.4c-0.1,0-0.2-0.2-0.4-0.3c-0.6-3.2-0.7-155.7-0.1-158.9c1.1-0.1,2.3-0.3,3.5-0.5
				c0.2-1.4,0.3-2.6,0.5-3.8c1.3-0.2,2.4-0.3,3.5-0.4c0.2-1.2,0.3-2.3,0.5-3.6c1,0,1.9,0,2.7-0.1c1.6-0.2,3.3-0.2,4.6-0.9
				c0.7-0.3,0.8-1.9,1.2-3.1c5.4-0.1,10.9-0.3,16.4-0.4c0.2-0.6,0.3-0.9,0.3-1.2c0.3-2.5,0.3-2.6,2.9-2.6c4-0.1,8-0.1,12-0.2
				c2,0,3.9-0.2,5.9-0.2c0.2-1.2,0.4-2.2,0.7-3.5c8.1-0.3,16.1-0.6,24.1-0.9c0.3-1.3,0.5-2.3,0.7-3.3c7-0.7,13.8,0,20.6-1
				c0.2-1.2,0.4-2.2,0.7-3.5c2,0,3.8,0,5.6,0c6.7-0.2,13.4-0.4,20.1-0.6c2.7-0.1,2.7-0.2,3.2-2.9c0-0.1,0.2-0.3,0.4-0.5
				c0.4-0.1,1-0.2,1.5-0.2c2.8-0.1,5.6-0.1,8.4-0.1c5.6-0.1,11.2-0.2,16.8-0.3c1,0,1.8-0.1,2.1-1.4c0.3-2.1,0.4-2.2,2.5-2.2
				c8.2-0.2,16.3-0.4,24.5-0.5c0.8,0,1.7-0.1,2.5-0.2c0.3-1.2,0.5-2.2,0.7-3.3c0.6-0.1,1.1-0.2,1.5-0.2c4.3-0.1,8.6-0.2,13-0.3
				c8.1-0.2,16.1-0.4,24.2-0.5c1.3,0,2.1-0.3,2.3-1.8c0.2-1.8,0.4-1.7,2.2-1.8c2.8-0.1,5.6-0.1,8.4-0.1c11-0.1,22.1-0.1,33.1-0.2
				c0.9,0,1.7-0.1,2.6-0.2c0.2-1.3,0.4-2.4,0.6-3.7c25.1-0.1,50.1-0.2,75-0.4c0.2-0.7,0.3-1.1,0.4-1.4c0.4-2,0.4-2.1,2.4-2.1
				c1.6-0.1,3.2-0.1,4.8-0.1c12,0,24,0,36,0C646.7,42.2,647.7,41.9,648.7,41.8z M581.4,578.8c0.1-2.6,0.2-5,0.2-7.4
				c0-111,0-221.9,0-332.9c0-0.6,0.1-1.3,0-1.9c-0.2-1.9-0.5-3.7-0.7-5.8c-1.3,0.1-2.4,0.1-3.5,0.2c-0.2,1.4-0.3,2.4-0.5,3.5
				c-0.8,0-1.5,0-2.1,0.1c-1.7,0.2-3.6,0.2-5.1,1c-0.7,0.3-0.8,2.1-1.2,3.2c-1.4,0.1-2.7,0.2-4.1,0.3c-0.2,1.4-0.3,2.4-0.5,3.6
				c-2.6,0.3-5.1,0.5-7.6,0.8c-0.1,1.3-0.2,2.4-0.4,3.5c-2.8,0.3-5.3,0.6-7.8,0.9c-0.2,1.3-0.3,2.4-0.4,3.5
				c-1.5,0.1-2.7,0.2-4.1,0.4c-0.2,1.4-0.3,2.6-0.4,3.7c-2,0.3-3.8,0.5-5.6,0.8c-1.8,0.3-1.9,0.3-2.1,2.2c-0.1,1.2-0.6,1.7-1.8,1.7
				c-0.8,0-1.7,0.1-2.6,0.1c-0.1,1.3-0.2,2.4-0.3,3.7c-1.4,0.2-2.7,0.3-4,0.5c-0.1,1.3-0.2,2.5-0.4,3.8c-1,0-1.8-0.1-2.6,0
				c-1.6,0.3-3.2,0.4-4.6,1.1c-0.6,0.3-0.5,1.9-0.8,2.8c0,0.1-0.2,0.2-0.4,0.4c-1.1,0.1-2.4,0.2-3.6,0.3c-0.1,1.4-0.3,2.7-0.4,3.9
				c-1.5,0.1-2.8,0.2-4,0.3c-0.1,1.3-0.2,2.4-0.3,3.7c-1.4,0.2-2.7,0.4-4,0.5c-0.1,1.3-0.2,2.5-0.3,3.6c-1.4,0.1-2.6,0.2-3.9,0.3
				c-0.2,1.4-0.3,2.7-0.4,4c-1.3,0.1-2.5,0.2-3.8,0.2c-0.3,1.2-0.5,2.3-0.7,3.5c-1.8,0.4-3.5,0.8-5.2,1c-1.7,0.3-1.7,0.2-2,2
				c-0.3,2-0.4,2.1-2.3,2.3c-0.5,0.1-1.1,0.2-1.5,0.3c-0.4,1.3-0.4,2.7-1.1,3.4c-0.7,0.7-2.2,0.7-3.3,0.9c-0.1,0.3-0.2,0.5-0.3,0.8
				c-0.3,2.4-0.3,2.4-2.7,2.8c-1,0.2-1.2,0.8-1.4,1.6c-0.4,2-0.9,4-1.4,6c-1.2,0.2-2.3,0.3-3.4,0.5c-0.1,1.5-0.2,2.7-0.4,4
				c-1.3,0.1-2.5,0.1-3.8,0.2c-0.2,1.4-0.3,2.6-0.5,3.9c-1.3,0.2-2.4,0.3-3.6,0.4c-0.1,1.4-0.2,2.5-0.3,3.8
				c-1.4,0.2-2.6,0.3-3.9,0.5c-0.1,1.3-0.2,2.5-0.3,3.8c-1.3,0.2-2.6,0.3-3.8,0.5c-0.1,1.4-0.2,2.7-0.3,3.9
				c-0.5,0.2-0.9,0.3-1.3,0.4c-2.2,0.4-2.1,0.4-2.4,2.4c-0.2,1.7-0.5,3.4-0.8,5.2c-1.3,0.2-2.4,0.3-3.6,0.5
				c-0.1,1.4-0.2,2.6-0.3,3.9c-1.3,0.2-2.6,0.3-3.9,0.5c-0.1,1.4-0.2,2.7-0.3,4c-0.5,0.2-1,0.3-1.4,0.4c-2,0.4-2,0.4-2.2,2.3
				c-0.3,1.8-0.6,3.6-0.9,5.4c-1.2,0.2-2.4,0.3-3.6,0.5c0,0.8-0.1,1.3-0.1,1.9c-0.1,2.2-0.1,2.2-2.2,2.6c-1.1,0.2-1.5,0.7-1.6,1.7
				c-0.2,2-0.6,4.1-0.9,6.2c-1.2,0.1-2.4,0.2-3.6,0.4c-0.2,2.6-0.4,5.2-0.6,7.7c-1.3,0.1-2.3,0.3-3.6,0.4c-0.1,1.5-0.3,2.8-0.4,4.2
				c-0.5,0.2-0.9,0.4-1.3,0.4c-1.9,0-2.4,0.7-2.4,2.5c0,1.8-0.3,3.6-0.5,5.5c-1.3,0.2-2.4,0.4-3.7,0.6c-0.2,2.6-0.3,5.2-0.5,7.8
				c-1.3,0.2-2.4,0.3-3.7,0.5c-0.2,2.6-0.4,5.2-0.5,7.8c-1.2,0.2-2.4,0.4-3.5,0.6c-0.2,2.8-0.4,5.4-0.7,8.1
				c-0.6,0.1-1.1,0.2-1.6,0.3c-1.9,0.2-1.9,0.2-2.1,2.1c-0.1,1.7-0.2,3.3-0.3,5c-0.2,1.6-0.4,3.3-0.6,4.9c-1.2,0.1-2.2,0.3-3.4,0.4
				c-0.2,2.9-0.3,5.6-0.5,8.3c-0.6,0.1-1,0.2-1.4,0.3c-1.9,0.3-1.9,0.3-2.1,2.1c-0.2,2-0.4,4-0.5,5.9c-0.1,1.3,0,2.7,0,4.1
				c-1.4,0.2-2.5,0.4-3.7,0.6c-0.3,4.1-0.5,8-0.8,12c-0.6,0.1-1.1,0.2-1.5,0.3c-1.8,0.2-1.9,0.2-2,2c-0.1,1.7-0.2,3.3-0.3,5
				c-0.2,3.1-0.3,6.2-0.5,9.3c-1.3,0.2-2.4,0.4-3.6,0.6c-0.2,5.6-0.3,11-0.5,16.4c-0.9,0.1-1.5,0.2-2.2,0.3
				c-0.9,0.1-1.2,0.6-1.3,1.4c-0.1,1.8-0.4,3.7-0.4,5.5c-0.1,4.2-0.1,8.3-0.2,12.5c0,1.8-0.1,3.6-0.2,5.3c-0.4,0.2-0.5,0.4-0.6,0.4
				c-2.7,0.6-2.8,0.6-2.8,3.3c-0.3,15.3-0.5,30.5-0.7,45.8c0,1.7,0.2,3.5,0.3,5.3c12.7,0,25.1,0,37.9,0c0.1-6.9,0.2-13.8,0.4-20.6
				c1.3-0.2,2.3-0.4,3.6-0.6c0-1,0-1.9,0-2.9c0.1-10.6,0.2-21.1,0.4-31.7c0-0.8,0.2-1.7,0.2-2.5c0.6-0.1,1-0.2,1.4-0.2
				c2.2-0.3,2.2-0.2,2.2-2.5c0.1-4.2,0.1-8.5,0.2-12.7c0-1.8,0.2-3.6,0.2-5.5c1.2-0.2,2.3-0.4,3.5-0.6c0.2-4.2,0.4-8.2,0.6-12.2
				c1.3-0.3,2.7-0.3,3.4-0.9c0.7-0.6,0.6-2,0.9-3c3-0.5,110.9-0.3,112.6,0.1c0.1,0.3,0.2,0.6,0.2,0.9c0.3,2.5,0.3,2.5,2.7,2.8
				c0.4,0,0.7,0.2,1.3,0.4c0,1.1,0,2.1,0,3.1c0,27.4,0,54.7,0,82.1c0,2.1,0.1,4.3,0.2,6.5C556.2,578.8,568.6,578.8,581.4,578.8z
				 M753.3,440.4c0.1-1.5,0.2-2.6,0.3-3.9c1.4-0.1,2.6-0.3,3.9-0.4c0.1-1.4,0.2-2.7,0.3-4c1.2-0.1,2.3-0.2,3.5-0.3
				c0.3-2.6,0.6-5.1,0.9-7.7c0.6-0.1,1.1-0.1,1.7-0.2c0.6-0.1,1.2-0.2,1.9-0.3c0.1-1.4,0.2-2.7,0.3-4c0.5-0.2,0.9-0.4,1.4-0.5
				c1.9-0.4,1.9-0.4,2.2-2.4c0.3-1.9,0.5-3.7,0.8-5.7c0.6-0.1,1.1-0.2,1.6-0.3c0.5-0.1,1-0.2,1.7-0.4c0.3-3.9,0.6-7.7,1-11.6
				c1.1-0.2,2.2-0.3,3.5-0.5c0.2-4.1,0.3-8.2,0.4-12.2c0.6-0.1,1-0.2,1.4-0.3c1.9-0.2,1.9-0.2,2.1-2.1c0.2-2.5,0.5-4.9,0.5-7.4
				c0-13.2,0-26.4,0-39.6c0-1.7-0.2-3.4-0.3-5.2c-1.3-0.3-2.2-0.4-3.4-0.7c-0.3-5.3-0.6-10.4-0.9-15.6c-1.3-0.3-2.3-0.5-3.5-0.7
				c-0.2-2.8-0.4-5.5-0.6-8.2c-1.3-0.2-2.4-0.3-3.6-0.5c-0.2-2.7-0.4-5.3-0.5-7.9c-1.3-0.2-2.4-0.4-3.4-0.6
				c-0.3-2.7-0.6-5.2-0.9-7.7c-1.3-0.1-2.4-0.2-3.5-0.3c-0.1-1.5-0.3-2.8-0.4-4.1c-0.7-0.1-1.2-0.2-1.7-0.2c-2.1-0.1-2-0.1-2.2-2.2
				c-0.1-1.9-0.4-3.7-0.6-5.6c-1.4-0.1-2.6-0.2-3.8-0.3c-0.1-1.5-0.2-2.7-0.4-4c-1.3-0.1-2.5-0.2-3.8-0.3c-0.1-1.3-0.2-2.6-0.4-3.9
				c-1.3-0.2-2.5-0.3-3.8-0.5c-0.1-0.8-0.1-1.3-0.2-1.9c-0.1-0.6-0.2-1.2-0.3-1.9c-1.4-0.1-2.6-0.3-3.8-0.4
				c-0.1-1.3-0.2-2.4-0.3-3.6c-1.4-0.1-2.7-0.3-4-0.4c-0.1-1.4-0.3-2.6-0.4-3.8c-2.6-0.2-5.1-0.4-7.5-0.6c-0.2-1.4-0.3-2.6-0.5-3.8
				c-1.5-0.1-2.8-0.2-4-0.3c-0.1-1.3-0.2-2.4-0.4-3.6c-2.7-0.3-5.3-0.5-7.9-0.8c-0.2-1.3-0.3-2.4-0.5-3.5c-2.7-0.3-5.3-0.5-7.8-0.7
				c-0.2-1.3-0.3-2.3-0.5-3.7c-2.8,0-5.5,0-8.2,0c-0.2-1.4-0.4-2.4-0.7-3.8c-5.3-0.3-10.6-0.6-15.9-0.9c-0.2-1.2-0.4-2.2-0.6-3.2
				c-4.3-0.8-63.4-0.9-66.8-0.1c0,1.2,0,2.5,0,3.7c0,112.1,0,224.1,0,336.2c0,0.8,0,1.6,0,2.4c0.1,1.7,0.2,3.5,0.3,5.1
				c3.2,0.6,39.7,0.6,41.8-0.1c0-2.1,0-4.2,0-6.4c0-27.7,0-55.3,0-83c0-2,0.1-4.1,0.2-6.4c9.8-0.1,19.2-0.3,28.7-0.4
				c0.2-1.4,0.4-2.5,0.6-3.6c4.2-0.2,8.2-0.5,12.2-0.7c0.1-0.6,0.3-1.2,0.4-1.7c0.3-1.7,0.3-1.7,2.1-1.9c1.6-0.1,3.2-0.1,4.8-0.3
				c1.6-0.2,3.3-0.4,4.8-0.6c0.2-1.3,0.4-2.4,0.6-3.3c2.8-0.3,5.3-0.5,7.9-0.8c0.2-1.3,0.4-2.4,0.5-3.6c1.4-0.1,2.7-0.2,4.1-0.3
				c0.1-1.3,0.2-2.4,0.4-3.6c2.7-0.3,5.2-0.6,7.7-0.9c0.2-1.3,0.3-2.4,0.4-3.5c1.4-0.1,2.7-0.3,4-0.4c0.1-1.4,0.3-2.6,0.4-3.8
				c1.5-0.1,2.7-0.3,4-0.4c0.1-1.4,0.2-2.6,0.3-3.8c1.4-0.1,2.6-0.2,3.9-0.3c0.1-1.4,0.3-2.5,0.4-3.7c1.4-0.2,2.5-0.4,3.7-0.5
				c0.1-1.4,0.2-2.6,0.3-3.8C750.8,440.6,751.9,440.5,753.3,440.4z M846.1,537c-0.2-0.5-0.2-0.6-0.3-0.6c0-0.1-0.1-0.2-0.1-0.2
				c0-0.2,0-0.3,0-0.5c0-0.1,0-0.2,0-0.2c0-0.2,0-0.3,0-0.5c0-100.5,0-201.1,0-301.6c0-0.2,0-0.5,0-0.7c0-0.1,0-0.2,0-0.2
				c0-0.1,0-0.2,0-0.2c0-0.2,0-0.3,0-0.5c0-0.1,0-0.2,0-0.2c0-0.1,0-0.2-0.1-0.2c0-0.1-0.1-0.2-0.1-0.2c0-0.1-0.1-0.1-0.3-0.3
				c-0.3,0-0.8-0.1-1.2-0.1c-11.5,0-23,0-34.6,0c-1.8,0-3.6,0.3-5.5,0.6c0,1.2,0,2.1,0,3.1c0,112.6,0,225.2,0,337.8
				c0,1.6,0.1,3.2,0.1,4.8c0.1,1.6,0.2,1.7,1.9,1.8c1.4,0.1,2.7,0.2,4.1,0.2c54.7,0,109.4,0,164.1,0c1.8,0,3.6-0.1,5.6-0.2
				c0.1-1,0.1-1.7,0.1-2.5c0-10.2,0.1-20.3,0.1-30.5c0-2.3-0.3-4.6-0.5-6.9c-0.1-1.1-0.6-1.5-1.7-1.6c-1.8,0-3.5-0.2-5.3-0.2
				c-41,0-81.9,0-122.9,0C848.4,537.1,847.2,537,846.1,537z"/>
			<path class="st1" d="M497.5,348.2c0.1-1.3,0.2-2.5,0.3-3.8c1.3-0.1,2.4-0.2,3.8-0.4c0.1-1.3,0.2-2.5,0.4-4
				c1.2-0.1,2.3-0.2,3.7-0.3c0.1-1.3,0.2-2.5,0.3-4c1.3-0.1,2.5-0.2,3.9-0.3c0.1-1.2,0.2-2.4,0.3-3.9c1.2-0.1,2.5-0.2,3.9-0.4
				c0.1-1.2,0.2-2.3,0.3-3.7c1.2-0.1,2.4-0.3,3.8-0.4c0.2-1.3,0.3-2.5,0.5-3.9c1.3-0.1,2.4-0.2,3.7-0.3c0.1-1.3,0.3-2.6,0.4-3.9
				c1.4-0.1,2.6-0.2,4-0.3c0.1-1.3,0.2-2.4,0.4-3.6c1.4-0.2,2.6-0.4,3.9-0.6c0.1-1.3,0.2-2.4,0.2-3.5c1.9-0.3,3.7-0.7,5.6-1
				c2-0.3,2-0.2,2.3-2.2c0.1-0.4,0.2-0.8,0.3-1.3c1.1,0,2.2,0,3.6,0c0.1,1,0.2,2,0.2,3c0,23.5,0,47,0,70.5c0,18.9,0,37.7,0,56.6
				c0,1-0.1,2-0.2,3.2c-2.1,0.2-4.1,0.5-6.1,0.5c-30.8,0-61.6,0-92.4,0c-1.8,0-3.6-0.1-5.6-0.2c0-1.3,0-2.4,0-3.7
				c1.1-0.1,2.2-0.3,3.5-0.5c0.2-2.7,0.3-5.3,0.5-8.1c1.2-0.2,2.4-0.3,3.7-0.5c0.2-2.6,0.3-5.1,0.5-7.8c1.2-0.2,2.3-0.3,3.7-0.5
				c0.2-2.6,0.4-5.2,0.6-8c1.1-0.2,2.2-0.3,3.4-0.5c0.2-2.6,0.4-5.1,0.6-7.7c1.3-0.1,2.4-0.2,3.7-0.4c0.2-2.6,0.4-5.1,0.6-7.7
				c1.3-0.2,2.5-0.3,3.8-0.5c0.1-1.4,0.2-2.6,0.3-4.1c1.1-0.1,2.2-0.3,3.5-0.5c0.3-2.5,0.6-5,1-7.6c1.1-0.2,2.3-0.4,3.5-0.6
				c0.1-1.3,0.2-2.6,0.3-4c1.2-0.2,2.4-0.3,3.8-0.5c0.2-2.5,0.5-5,0.7-7.7c1.3-0.1,2.4-0.3,3.7-0.4c0.1-1.3,0.2-2.6,0.3-4
				c1.2-0.1,2.4-0.2,3.8-0.3c0.1-1.3,0.3-2.5,0.4-3.9c1.2-0.2,2.4-0.3,3.7-0.5c0.1-0.8,0.2-1.6,0.1-2.4c0-1.2,0.4-1.9,1.6-1.9
				c1.7,0,2.1-0.8,2.3-2.4c0.2-1.6,0.6-3.2,1-5.1C494.9,348.6,496.1,348.4,497.5,348.2z"/>
			<path class="st1" d="M736.2,393.8c-1.4,0.2-2.5,0.3-3.7,0.5c-0.2,2.8-0.3,5.3-0.5,8c-1.3,0.1-2.5,0.2-3.7,0.4
				c-0.1,1.4-0.2,2.6-0.4,4c-1.2,0.1-2.4,0.3-3.6,0.4c-0.1,0.4-0.2,0.7-0.2,1c-0.1,0.9,0.1,2-0.3,2.5c-0.4,0.5-1.5,0.6-2.4,0.8
				c-0.9,0.2-1.1,0.9-1.1,1.6c-0.1,2.2-0.8,2.4-2.4,2.5c-1,0.1-1.6,0.4-1.8,1.5c-0.4,2.4-0.5,2.4-3,2.6c-0.3,0-0.6,0.2-0.8,0.2
				c-0.1,0.2-0.3,0.4-0.3,0.5c-0.4,3.1-0.4,3.1-3.7,3.4c-0.2,0-0.3,0.1-0.6,0.2c-0.1,0.5-0.2,1.1-0.2,1.7c-0.1,0.5-0.1,1.1-0.2,1.8
				c-1.4,0.1-2.7,0.3-4.1,0.4c-0.2,1.3-0.3,2.4-0.5,3.7c-2.6,0.2-5.1,0.3-7.8,0.5c-0.2,1.3-0.3,2.4-0.5,3.8
				c-1.6,0.1-3.2,0.2-4.8,0.3c-1.8,0.1-3.5,0.2-5.3,0.3c-1.2,0-1.8,0.5-1.8,1.7c0,0.6-0.2,1.2-0.4,2c-6.9,0.2-13.6,0.4-20.5,0.6
				c-0.2,1.2-0.4,2.2-0.6,3.4c-1.2,0-2.2,0-3.3,0c-0.6-2.3-0.9-168.1-0.2-171.5c0.6-0.1,1.3-0.2,2-0.2c6.6,0.1,13.1,0.2,19.7,0.3
				c2.5,0,2.5,0.1,2.8,2.6c0,0.3,0.1,0.6,0.3,1.2c2.7,0.1,5.5,0.3,8.2,0.4c0.3,1.2,0.3,2.6,1,3.2c0.7,0.6,2.1,0.5,3.2,0.6
				c1.3,0.2,2.7,0.3,4.2,0.4c0.2,1.2,0.3,2.3,0.5,3.5c2.6,0.2,5.1,0.5,7.8,0.7c0.1,1.3,0.2,2.4,0.4,3.7c1.3,0.1,2.6,0.2,3.9,0.3
				c0.2,1.3,0.3,2.5,0.5,3.9c1.2,0.1,2.3,0.2,3.6,0.3c0.2,1.2,0.3,2.5,0.5,3.8c1.3,0.1,2.4,0.3,3.8,0.4c0.1,1.2,0.2,2.4,0.3,3.7
				c1.2,0.2,2.5,0.3,3.8,0.5c0.1,1.3,0.3,2.6,0.4,3.9c1.2,0.1,2.3,0.2,3.5,0.3c0.3,2.5,0.6,5,1,7.6c1.1,0.2,2.2,0.3,3.3,0.5
				c0.3,1.9,0.5,3.8,0.8,5.7c0.3,2,0.3,2,2.2,2.3c0.5,0.1,0.9,0.3,1.4,0.5c0.1,2.7,0.3,5.3,0.4,8c1.2,0.2,2.2,0.4,3.6,0.7
				c0.8,16.5,0.7,33,0.1,49.6c-1.3,0.2-2.3,0.4-3.6,0.7C736.6,385.9,736.4,389.8,736.2,393.8z"/>
		</g>
	</g>
</g>
</svg>
