<?xml version="1.0" encoding="utf-8"?>
<!-- Generator: Adobe Illustrator 21.1.0, SVG Export Plug-In . SVG Version: 6.00 Build 0)  -->
<svg version="1.1" id="Layer_1" xmlns="http://www.w3.org/2000/svg" xmlns:xlink="http://www.w3.org/1999/xlink" x="0px" y="0px"
	 viewBox="0 0 1280 1024" style="enable-background:new 0 0 1280 1024;" xml:space="preserve">
<style type="text/css">
	.st0{fill:#F6F6F6;}
	.st1{fill:none;stroke:#231F20;}
</style>
<g id="Layer_1">
	<g>
		<g>
			<g>
				<path d="M668.5,945.6c-113.2,0.1-221.8-44.5-301.7-126.5C285.2,735.3,245.3,634.2,245,517.3c2.9-116,44.7-215.6,127.2-297.4
					c75.7-75.1,182.1-122.7,302.2-121.2c106.4,1.3,213.7,42.7,296.4,126.7c73.7,74.8,122.6,181.8,121.2,302.5
					C1089.4,755.7,903.4,945.6,668.5,945.6z M570.1,405.4c0-7.4,0-14.2,0-21c0-0.8,0-1.6-0.1-2.4c-0.2-2.1-1.2-2.9-3.3-3
					c-1.9-0.1-3.6,0.7-5.1,1.7c-10.1,6.8-20.8,12.5-31.9,17.6c-21.1,9.9-42.8,18.2-65.5,23.6c-2.6,0.6-4.3,1.9-4.9,4.6
					c-0.6,2.6,0.1,4.4,2.7,5.3c1.4,0.5,2.8,0.8,4.2,1.1c7.5,1.8,14.9,3.5,22.4,5.3c2.2,0.5,3.1,1.6,3.4,3.8c0.1,0.7,0.1,1.4,0.1,2.2
					c0.3,61.8-0.7,123.7,0.6,185.5c0.1,6.2,0.3,12.5,0.3,18.7c0,11.1,1,22.2,2.7,33.2c1.1,7,2.6,13.8,5.3,20.4
					c1.8,4.5,3.6,9.1,5,13.7c2.3,7.7,4.2,15.4,3.7,23.6c-0.2,4.1-1.2,8-3.2,11.7c-3.3,6.1-13.4,9.3-19.7,5.3c-4-2.5-7-5.9-8.9-10.1
					c-2.1-4.8-3.8-9.8-5.7-14.7c-2.2-5.7-5-11.1-8.9-15.8c-4.5-5.5-9.8-10.3-16.9-12.1c-9.5-2.4-18.9-1.6-27.8,2.7
					c-6.6,3.2-11.4,8.2-13.5,15.4c-3,10.6-1.9,20.7,4.1,30.2c4.1,6.4,9.8,11.2,16.4,14.8c10.8,6,22.5,9,34.7,10.1
					c10.9,1,21.7,0.5,32.5-1.3c25.2-4.4,44.8-17.1,57.9-39.4c7.5-12.8,11.9-26.8,15-41.3c3.1-14.4,4.4-29.1,4.4-43.8
					c0.1-65,0-129.9,0-194.9c0-4.7,0.2-9.4,0.9-14.1c0.7-5,1.7-9.9,3.9-14.5c4.7-10.2,12.5-16.8,23.5-19.5
					c5.6-1.4,11.2-1.5,16.9-1.1c14.5,0.9,25.2,7.9,32.2,20.5c2.6,4.6,4.4,9.6,5.6,14.8c2.3,10.1,3.3,20.4,3.3,30.7
					c0.1,43.9,0,87.8,0,131.8c0,2.8-0.1,5.6-0.5,8.4c-1.2,8.9-5.6,15.9-12.9,21c-4.5,3.1-9.6,4.7-14.9,5.7c-1.1,0.2-2.2,0.4-3.2,0.9
					c-2.9,1.4-3.3,4.4-0.9,6.6c1.2,1.1,2.7,1.2,4.3,1.2c44.7,0,89.4,0,134.2,0c0.8,0,1.6,0,2.4-0.1c1.8-0.4,3.3-2.1,3.5-3.8
					c0.2-1.8-0.8-3.2-2.8-4c-0.8-0.3-1.7-0.5-2.5-0.7c-2.1-0.5-4.2-0.8-6.3-1.5c-11.1-3.5-18.4-10.7-21.2-22.1
					c-0.8-3.4-1.1-7-1.1-10.5c-0.1-48.8-0.1-97.6,0-146.4c0-5.1,0.4-10.2,0.9-15.3c0.6-6,2-11.8,4.6-17.3
					c4.6-9.7,12.1-15.9,22.5-18.6c5.7-1.5,11.5-1.6,17.4-1.3c14.4,0.8,24.9,7.7,32,20.2c3.2,5.7,5.3,11.8,6.5,18.2
					c1.8,9.5,2.6,19.2,2.7,28.9c0,43.3,0,86.6,0,129.8c0,2.3,0,4.6-0.3,6.9c-1,11.4-6.6,19.8-16.7,25.2c-3.6,1.9-7.5,2.8-11.4,3.6
					c-1.2,0.2-2.4,0.5-3.4,1c-2.6,1.3-2.9,4.1-1,6.2c1.2,1.3,2.7,1.5,4.4,1.5c44.9,0,89.8,0,134.6,0c0.7,0,1.5,0,2.1-0.2
					c1.9-0.4,3.5-2.3,3.6-4.1c0.1-1.5-1.1-3-2.9-3.7c-0.8-0.3-1.7-0.5-2.5-0.7c-2.1-0.5-4.2-0.8-6.3-1.5
					c-11.5-3.7-18.9-11.3-21.5-23.3c-0.6-2.8-0.8-5.7-0.8-8.6c-0.1-42.5-0.1-85-0.2-127.4c0-8.3-0.2-16.6-1.2-24.9
					c-1.4-11.3-4-22.2-8.7-32.5c-3.5-7.6-8.3-14.2-14.6-19.7c-8.6-7.7-18.8-12.4-29.7-15.6c-8.4-2.5-17-3.5-25.8-4
					c-10.7-0.6-21.3-0.4-31.8,1.3c-23.2,3.7-43.6,13.4-60.7,29.6c-1.4,1.3-2.8,2.6-4.3,4c-0.7-1.1-1.3-2-1.9-2.9
					c-4.6-7.2-10.4-13.2-17.5-17.9c-6.9-4.6-14.4-7.8-22.4-10.1c-11-3-22.3-4.1-33.7-4.3c-10.3-0.2-20.5,0.5-30.5,2.6
					c-15.7,3.3-29.9,10.1-43,19.2C572,404,571.3,404.6,570.1,405.4z M529.4,342.3c6,0.1,13.7-1.6,20.8-5.4
					c16.8-8.9,26.1-22.5,25.6-41.9c-0.3-14.3-6.4-25.9-18-34.4c-11.4-8.4-24.3-10.6-38.1-8.1c-24.6,4.6-42.6,26.9-38.1,53.1
					c1.7,9.6,6,17.9,13.2,24.4C504.1,338.4,515,342.4,529.4,342.3z"/>
			</g>
		</g>
	</g>
	<g>
		<g>
			<g>
				<path class="st0" d="M668.5,945.6c-113.2,0.1-221.8-44.5-301.7-126.5C285.2,735.3,245.3,634.2,245,517.3
					c2.9-116,44.7-215.6,127.2-297.4c75.7-75.1,182.1-122.7,302.2-121.2c106.4,1.3,213.7,42.7,296.4,126.7
					c73.7,74.8,122.6,181.8,121.2,302.5C1089.4,755.7,903.4,945.6,668.5,945.6z M570.1,405.4c0-7.4,0-14.2,0-21c0-0.8,0-1.6-0.1-2.4
					c-0.2-2.1-1.2-2.9-3.3-3c-1.9-0.1-3.6,0.7-5.1,1.7c-10.1,6.8-20.8,12.5-31.9,17.6c-21.1,9.9-42.8,18.2-65.5,23.6
					c-2.6,0.6-4.3,1.9-4.9,4.6c-0.6,2.6,0.1,4.4,2.7,5.3c1.4,0.5,2.8,0.8,4.2,1.1c7.5,1.8,14.9,3.5,22.4,5.3
					c2.2,0.5,3.1,1.6,3.4,3.8c0.1,0.7,0.1,1.4,0.1,2.2c0.3,61.8-0.7,123.7,0.6,185.5c0.1,6.2,0.3,12.5,0.3,18.7
					c0,11.1,1,22.2,2.7,33.2c1.1,7,2.6,13.8,5.3,20.4c1.8,4.5,3.6,9.1,5,13.7c2.3,7.7,4.2,15.4,3.7,23.6c-0.2,4.1-1.2,8-3.2,11.7
					c-3.3,6.1-13.4,9.3-19.7,5.3c-4-2.5-7-5.9-8.9-10.1c-2.1-4.8-3.8-9.8-5.7-14.7c-2.2-5.7-5-11.1-8.9-15.8
					c-4.5-5.5-9.8-10.3-16.9-12.1c-9.5-2.4-18.9-1.6-27.8,2.7c-6.6,3.2-11.4,8.2-13.5,15.4c-3,10.6-1.9,20.7,4.1,30.2
					c4.1,6.4,9.8,11.2,16.4,14.8c10.8,6,22.5,9,34.7,10.1c10.9,1,21.7,0.5,32.5-1.3c25.2-4.4,44.8-17.1,57.9-39.4
					c7.5-12.8,11.9-26.8,15-41.3c3.1-14.4,4.4-29.1,4.4-43.8c0.1-65,0-129.9,0-194.9c0-4.7,0.2-9.4,0.9-14.1c0.7-5,1.7-9.9,3.9-14.5
					c4.7-10.2,12.5-16.8,23.5-19.5c5.6-1.4,11.2-1.5,16.9-1.1c14.5,0.9,25.2,7.9,32.2,20.5c2.6,4.6,4.4,9.6,5.6,14.8
					c2.3,10.1,3.3,20.4,3.3,30.7c0.1,43.9,0,87.8,0,131.8c0,2.8-0.1,5.6-0.5,8.4c-1.2,8.9-5.6,15.9-12.9,21
					c-4.5,3.1-9.6,4.7-14.9,5.7c-1.1,0.2-2.2,0.4-3.2,0.9c-2.9,1.4-3.3,4.4-0.9,6.6c1.2,1.1,2.7,1.2,4.3,1.2c44.7,0,89.4,0,134.2,0
					c0.8,0,1.6,0,2.4-0.1c1.8-0.4,3.3-2.1,3.5-3.8c0.2-1.8-0.8-3.2-2.8-4c-0.8-0.3-1.7-0.5-2.5-0.7c-2.1-0.5-4.2-0.8-6.3-1.5
					c-11.1-3.5-18.4-10.7-21.2-22.1c-0.8-3.4-1.1-7-1.1-10.5c-0.1-48.8-0.1-97.6,0-146.4c0-5.1,0.4-10.2,0.9-15.3
					c0.6-6,2-11.8,4.6-17.3c4.6-9.7,12.1-15.9,22.5-18.6c5.7-1.5,11.5-1.6,17.4-1.3c14.4,0.8,24.9,7.7,32,20.2
					c3.2,5.7,5.3,11.8,6.5,18.2c1.8,9.5,2.6,19.2,2.7,28.9c0,43.3,0,86.6,0,129.8c0,2.3,0,4.6-0.3,6.9c-1,11.4-6.6,19.8-16.7,25.2
					c-3.6,1.9-7.5,2.8-11.4,3.6c-1.2,0.2-2.4,0.5-3.4,1c-2.6,1.3-2.9,4.1-1,6.2c1.2,1.3,2.7,1.5,4.4,1.5c44.9,0,89.8,0,134.6,0
					c0.7,0,1.5,0,2.1-0.2c1.9-0.4,3.5-2.3,3.6-4.1c0.1-1.5-1.1-3-2.9-3.7c-0.8-0.3-1.7-0.5-2.5-0.7c-2.1-0.5-4.2-0.8-6.3-1.5
					c-11.5-3.7-18.9-11.3-21.5-23.3c-0.6-2.8-0.8-5.7-0.8-8.6c-0.1-42.5-0.1-85-0.2-127.4c0-8.3-0.2-16.6-1.2-24.9
					c-1.4-11.3-4-22.2-8.7-32.5c-3.5-7.6-8.3-14.2-14.6-19.7c-8.6-7.7-18.8-12.4-29.7-15.6c-8.4-2.5-17-3.5-25.8-4
					c-10.7-0.6-21.3-0.4-31.8,1.3c-23.2,3.7-43.6,13.4-60.7,29.6c-1.4,1.3-2.8,2.6-4.3,4c-0.7-1.1-1.3-2-1.9-2.9
					c-4.6-7.2-10.4-13.2-17.5-17.9c-6.9-4.6-14.4-7.8-22.4-10.1c-11-3-22.3-4.1-33.7-4.3c-10.3-0.2-20.5,0.5-30.5,2.6
					c-15.7,3.3-29.9,10.1-43,19.2C572,404,571.3,404.6,570.1,405.4z M529.4,342.3c6,0.1,13.7-1.6,20.8-5.4
					c16.8-8.9,26.1-22.5,25.6-41.9c-0.3-14.3-6.4-25.9-18-34.4c-11.4-8.4-24.3-10.6-38.1-8.1c-24.6,4.6-42.6,26.9-38.1,53.1
					c1.7,9.6,6,17.9,13.2,24.4C504.1,338.4,515,342.4,529.4,342.3z"/>
			</g>
		</g>
	</g>
	<g>
		<g>
			<g>
				<path class="st1" d="M668.5,945.6c-113.2,0.1-221.8-44.5-301.7-126.5C285.2,735.3,245.3,634.2,245,517.3
					c2.9-116,44.7-215.6,127.2-297.4c75.7-75.1,182.1-122.7,302.2-121.2c106.4,1.3,213.7,42.7,296.4,126.7
					c73.7,74.8,122.6,181.8,121.2,302.5C1089.4,755.7,903.4,945.6,668.5,945.6z M570.1,405.4c0-7.4,0-14.2,0-21c0-0.8,0-1.6-0.1-2.4
					c-0.2-2.1-1.2-2.9-3.3-3c-1.9-0.1-3.6,0.7-5.1,1.7c-10.1,6.8-20.8,12.5-31.9,17.6c-21.1,9.9-42.8,18.2-65.5,23.6
					c-2.6,0.6-4.3,1.9-4.9,4.6c-0.6,2.6,0.1,4.4,2.7,5.3c1.4,0.5,2.8,0.8,4.2,1.1c7.5,1.8,14.9,3.5,22.4,5.3
					c2.2,0.5,3.1,1.6,3.4,3.8c0.1,0.7,0.1,1.4,0.1,2.2c0.3,61.8-0.7,123.7,0.6,185.5c0.1,6.2,0.3,12.5,0.3,18.7
					c0,11.1,1,22.2,2.7,33.2c1.1,7,2.6,13.8,5.3,20.4c1.8,4.5,3.6,9.1,5,13.7c2.3,7.7,4.2,15.4,3.7,23.6c-0.2,4.1-1.2,8-3.2,11.7
					c-3.3,6.1-13.4,9.3-19.7,5.3c-4-2.5-7-5.9-8.9-10.1c-2.1-4.8-3.8-9.8-5.7-14.7c-2.2-5.7-5-11.1-8.9-15.8
					c-4.5-5.5-9.8-10.3-16.9-12.1c-9.5-2.4-18.9-1.6-27.8,2.7c-6.6,3.2-11.4,8.2-13.5,15.4c-3,10.6-1.9,20.7,4.1,30.2
					c4.1,6.4,9.8,11.2,16.4,14.8c10.8,6,22.5,9,34.7,10.1c10.9,1,21.7,0.5,32.5-1.3c25.2-4.4,44.8-17.1,57.9-39.4
					c7.5-12.8,11.9-26.8,15-41.3c3.1-14.4,4.4-29.1,4.4-43.8c0.1-65,0-129.9,0-194.9c0-4.7,0.2-9.4,0.9-14.1c0.7-5,1.7-9.9,3.9-14.5
					c4.7-10.2,12.5-16.8,23.5-19.5c5.6-1.4,11.2-1.5,16.9-1.1c14.5,0.9,25.2,7.9,32.2,20.5c2.6,4.6,4.4,9.6,5.6,14.8
					c2.3,10.1,3.3,20.4,3.3,30.7c0.1,43.9,0,87.8,0,131.8c0,2.8-0.1,5.6-0.5,8.4c-1.2,8.9-5.6,15.9-12.9,21
					c-4.5,3.1-9.6,4.7-14.9,5.7c-1.1,0.2-2.2,0.4-3.2,0.9c-2.9,1.4-3.3,4.4-0.9,6.6c1.2,1.1,2.7,1.2,4.3,1.2c44.7,0,89.4,0,134.2,0
					c0.8,0,1.6,0,2.4-0.1c1.8-0.4,3.3-2.1,3.5-3.8c0.2-1.8-0.8-3.2-2.8-4c-0.8-0.3-1.7-0.5-2.5-0.7c-2.1-0.5-4.2-0.8-6.3-1.5
					c-11.1-3.5-18.4-10.7-21.2-22.1c-0.8-3.4-1.1-7-1.1-10.5c-0.1-48.8-0.1-97.6,0-146.4c0-5.1,0.4-10.2,0.9-15.3
					c0.6-6,2-11.8,4.6-17.3c4.6-9.7,12.1-15.9,22.5-18.6c5.7-1.5,11.5-1.6,17.4-1.3c14.4,0.8,24.9,7.7,32,20.2
					c3.2,5.7,5.3,11.8,6.5,18.2c1.8,9.5,2.6,19.2,2.7,28.9c0,43.3,0,86.6,0,129.8c0,2.3,0,4.6-0.3,6.9c-1,11.4-6.6,19.8-16.7,25.2
					c-3.6,1.9-7.5,2.8-11.4,3.6c-1.2,0.2-2.4,0.5-3.4,1c-2.6,1.3-2.9,4.1-1,6.2c1.2,1.3,2.7,1.5,4.4,1.5c44.9,0,89.8,0,134.6,0
					c0.7,0,1.5,0,2.1-0.2c1.9-0.4,3.5-2.3,3.6-4.1c0.1-1.5-1.1-3-2.9-3.7c-0.8-0.3-1.7-0.5-2.5-0.7c-2.1-0.5-4.2-0.8-6.3-1.5
					c-11.5-3.7-18.9-11.3-21.5-23.3c-0.6-2.8-0.8-5.7-0.8-8.6c-0.1-42.5-0.1-85-0.2-127.4c0-8.3-0.2-16.6-1.2-24.9
					c-1.4-11.3-4-22.2-8.7-32.5c-3.5-7.6-8.3-14.2-14.6-19.7c-8.6-7.7-18.8-12.4-29.7-15.6c-8.4-2.5-17-3.5-25.8-4
					c-10.7-0.6-21.3-0.4-31.8,1.3c-23.2,3.7-43.6,13.4-60.7,29.6c-1.4,1.3-2.8,2.6-4.3,4c-0.7-1.1-1.3-2-1.9-2.9
					c-4.6-7.2-10.4-13.2-17.5-17.9c-6.9-4.6-14.4-7.8-22.4-10.1c-11-3-22.3-4.1-33.7-4.3c-10.3-0.2-20.5,0.5-30.5,2.6
					c-15.7,3.3-29.9,10.1-43,19.2C572,404,571.3,404.6,570.1,405.4z M529.4,342.3c6,0.1,13.7-1.6,20.8-5.4
					c16.8-8.9,26.1-22.5,25.6-41.9c-0.3-14.3-6.4-25.9-18-34.4c-11.4-8.4-24.3-10.6-38.1-8.1c-24.6,4.6-42.6,26.9-38.1,53.1
					c1.7,9.6,6,17.9,13.2,24.4C504.1,338.4,515,342.4,529.4,342.3z"/>
			</g>
		</g>
	</g>
	<g>
		<g>
			<g>
				<path class="st0" d="M668.5,945.6c-113.2,0.1-221.8-44.5-301.7-126.5C285.2,735.3,245.3,634.2,245,517.3
					c2.9-116,44.7-215.6,127.2-297.4c75.7-75.1,182.1-122.7,302.2-121.2c106.4,1.3,213.7,42.7,296.4,126.7
					c73.7,74.8,122.6,181.8,121.2,302.5C1089.4,755.7,903.4,945.6,668.5,945.6z M570.1,405.4c0-7.4,0-14.2,0-21c0-0.8,0-1.6-0.1-2.4
					c-0.2-2.1-1.2-2.9-3.3-3c-1.9-0.1-3.6,0.7-5.1,1.7c-10.1,6.8-20.8,12.5-31.9,17.6c-21.1,9.9-42.8,18.2-65.5,23.6
					c-2.6,0.6-4.3,1.9-4.9,4.6c-0.6,2.6,0.1,4.4,2.7,5.3c1.4,0.5,2.8,0.8,4.2,1.1c7.5,1.8,14.9,3.5,22.4,5.3
					c2.2,0.5,3.1,1.6,3.4,3.8c0.1,0.7,0.1,1.4,0.1,2.2c0.3,61.8-0.7,123.7,0.6,185.5c0.1,6.2,0.3,12.5,0.3,18.7
					c0,11.1,1,22.2,2.7,33.2c1.1,7,2.6,13.8,5.3,20.4c1.8,4.5,3.6,9.1,5,13.7c2.3,7.7,4.2,15.4,3.7,23.6c-0.2,4.1-1.2,8-3.2,11.7
					c-3.3,6.1-13.4,9.3-19.7,5.3c-4-2.5-7-5.9-8.9-10.1c-2.1-4.8-3.8-9.8-5.7-14.7c-2.2-5.7-5-11.1-8.9-15.8
					c-4.5-5.5-9.8-10.3-16.9-12.1c-9.5-2.4-18.9-1.6-27.8,2.7c-6.6,3.2-11.4,8.2-13.5,15.4c-3,10.6-1.9,20.7,4.1,30.2
					c4.1,6.4,9.8,11.2,16.4,14.8c10.8,6,22.5,9,34.7,10.1c10.9,1,21.7,0.5,32.5-1.3c25.2-4.4,44.8-17.1,57.9-39.4
					c7.5-12.8,11.9-26.8,15-41.3c3.1-14.4,4.4-29.1,4.4-43.8c0.1-65,0-129.9,0-194.9c0-4.7,0.2-9.4,0.9-14.1c0.7-5,1.7-9.9,3.9-14.5
					c4.7-10.2,12.5-16.8,23.5-19.5c5.6-1.4,11.2-1.5,16.9-1.1c14.5,0.9,25.2,7.9,32.2,20.5c2.6,4.6,4.4,9.6,5.6,14.8
					c2.3,10.1,3.3,20.4,3.3,30.7c0.1,43.9,0,87.8,0,131.8c0,2.8-0.1,5.6-0.5,8.4c-1.2,8.9-5.6,15.9-12.9,21
					c-4.5,3.1-9.6,4.7-14.9,5.7c-1.1,0.2-2.2,0.4-3.2,0.9c-2.9,1.4-3.3,4.4-0.9,6.6c1.2,1.1,2.7,1.2,4.3,1.2c44.7,0,89.4,0,134.2,0
					c0.8,0,1.6,0,2.4-0.1c1.8-0.4,3.3-2.1,3.5-3.8c0.2-1.8-0.8-3.2-2.8-4c-0.8-0.3-1.7-0.5-2.5-0.7c-2.1-0.5-4.2-0.8-6.3-1.5
					c-11.1-3.5-18.4-10.7-21.2-22.1c-0.8-3.4-1.1-7-1.1-10.5c-0.1-48.8-0.1-97.6,0-146.4c0-5.1,0.4-10.2,0.9-15.3
					c0.6-6,2-11.8,4.6-17.3c4.6-9.7,12.1-15.9,22.5-18.6c5.7-1.5,11.5-1.6,17.4-1.3c14.4,0.8,24.9,7.7,32,20.2
					c3.2,5.7,5.3,11.8,6.5,18.2c1.8,9.5,2.6,19.2,2.7,28.9c0,43.3,0,86.6,0,129.8c0,2.3,0,4.6-0.3,6.9c-1,11.4-6.6,19.8-16.7,25.2
					c-3.6,1.9-7.5,2.8-11.4,3.6c-1.2,0.2-2.4,0.5-3.4,1c-2.6,1.3-2.9,4.1-1,6.2c1.2,1.3,2.7,1.5,4.4,1.5c44.9,0,89.8,0,134.6,0
					c0.7,0,1.5,0,2.1-0.2c1.9-0.4,3.5-2.3,3.6-4.1c0.1-1.5-1.1-3-2.9-3.7c-0.8-0.3-1.7-0.5-2.5-0.7c-2.1-0.5-4.2-0.8-6.3-1.5
					c-11.5-3.7-18.9-11.3-21.5-23.3c-0.6-2.8-0.8-5.7-0.8-8.6c-0.1-42.5-0.1-85-0.2-127.4c0-8.3-0.2-16.6-1.2-24.9
					c-1.4-11.3-4-22.2-8.7-32.5c-3.5-7.6-8.3-14.2-14.6-19.7c-8.6-7.7-18.8-12.4-29.7-15.6c-8.4-2.5-17-3.5-25.8-4
					c-10.7-0.6-21.3-0.4-31.8,1.3c-23.2,3.7-43.6,13.4-60.7,29.6c-1.4,1.3-2.8,2.6-4.3,4c-0.7-1.1-1.3-2-1.9-2.9
					c-4.6-7.2-10.4-13.2-17.5-17.9c-6.9-4.6-14.4-7.8-22.4-10.1c-11-3-22.3-4.1-33.7-4.3c-10.3-0.2-20.5,0.5-30.5,2.6
					c-15.7,3.3-29.9,10.1-43,19.2C572,404,571.3,404.6,570.1,405.4z M529.4,342.3c6,0.1,13.7-1.6,20.8-5.4
					c16.8-8.9,26.1-22.5,25.6-41.9c-0.3-14.3-6.4-25.9-18-34.4c-11.4-8.4-24.3-10.6-38.1-8.1c-24.6,4.6-42.6,26.9-38.1,53.1
					c1.7,9.6,6,17.9,13.2,24.4C504.1,338.4,515,342.4,529.4,342.3z"/>
			</g>
		</g>
	</g>
</g>
</svg>
